$MeshFormat
4.1 0 8
$EndMeshFormat
$PhysicalNames
6
1 1 "Right"
1 2 "Top"
1 3 "Left"
1 4 "Bottom"
1 5 "Circle"
2 6 "Interior"
$EndPhysicalNames
$Entities
9 8 1 0
1 2.2 0 0 0 
2 2.2 0.41 0 0 
3 0 0.41 0 0 
4 0 0 0 0 
5 0.2 0.15 0 0 
6 0.2 0.2 0 0 
7 0.25 0.2 0 0 
8 0.2 0.25 0 0 
9 0.15 0.2 0 0 
1 2.1999999 -1.000000000028756e-07 -1e-07 2.2000001 0.4100001 1e-07 1 1 2 1 -2 
2 -1.000000000583867e-07 0.4099999 -1e-07 2.2000001 0.4100001 1e-07 1 2 2 2 -3 
3 -1e-07 -1.000000000028756e-07 -1e-07 1e-07 0.4100001 1e-07 1 3 2 3 -4 
4 -1.000000000583867e-07 -1e-07 -1e-07 2.2000001 1e-07 1e-07 1 4 2 4 -1 
5 0.1999999 0.1499999 -1e-07 0.2500001 0.2000001 1e-07 1 5 2 5 -7 
6 0.1999999 0.1999999 -1e-07 0.2500001 0.2500001 1e-07 1 5 2 7 -8 
7 0.1499999 0.1999999 -1e-07 0.2000001 0.2500001 1e-07 1 5 2 8 -9 
8 0.1499999 0.1499999 -1e-07 0.2000001 0.2000001 1e-07 1 5 2 9 -5 
1 -1.000000000583867e-07 -1.000000000028756e-07 -1e-07 2.2000001 0.4100001 1e-07 1 6 8 1 2 3 4 -8 -7 -6 -5 
$EndEntities
$Nodes
17 254 1 254
0 1 0 1
1
2.2 0 0
0 2 0 1
2
2.2 0.41 0
0 3 0 1
3
0 0.41 0
0 4 0 1
4
0 0 0
0 5 0 1
5
0.2 0.15 0
0 7 0 1
6
0.25 0.2 0
0 8 0 1
7
0.2 0.25 0
0 9 0 1
8
0.15 0.2 0
1 1 0 5
9
10
11
12
13
2.2 0.06833333333333333 0
2.2 0.1366666666666667 0
2.2 0.205 0
2.2 0.2733333333333334 0
2.2 0.3416666666666667 0
1 2 0 27
14
15
16
17
18
19
20
21
22
23
24
25
26
27
28
29
30
31
32
33
34
35
36
37
38
39
40
2.121428571428571 0.41 0
2.042857142857143 0.41 0
1.964285714285715 0.41 0
1.885714285714286 0.41 0
1.807142857142857 0.41 0
1.728571428571429 0.41 0
1.65 0.41 0
1.571428571428572 0.41 0
1.492857142857143 0.41 0
1.414285714285714 0.41 0
1.335714285714286 0.41 0
1.257142857142857 0.41 0
1.178571428571428 0.41 0
1.1 0.41 0
1.021428571428571 0.41 0
0.9428571428571424 0.41 0
0.8642857142857139 0.41 0
0.7857142857142851 0.41 0
0.7071428571428564 0.41 0
0.6285714285714277 0.41 0
0.5499999999999994 0.41 0
0.4714285714285711 0.41 0
0.3928571428571423 0.41 0
0.3142857142857136 0.41 0
0.2357142857142851 0.41 0
0.1571428571428566 0.41 0
0.07857142857142829 0.41 0
1 3 0 5
41
42
43
44
45
0 0.3416666666666667 0
0 0.2733333333333333 0
0 0.205 0
0 0.1366666666666666 0
0 0.0683333333333333 0
1 4 0 27
46
47
48
49
50
51
52
53
54
55
56
57
58
59
60
61
62
63
64
65
66
67
68
69
70
71
72
0.07857142857142854 0 0
0.1571428571428571 0 0
0.2357142857142856 0 0
0.3142857142857141 0 0
0.3928571428571428 0 0
0.4714285714285713 0 0
0.5499999999999998 0 0
0.6285714285714284 0 0
0.7071428571428571 0 0
0.7857142857142858 0 0
0.8642857142857144 0 0
0.9428571428571432 0 0
1.021428571428572 0 0
1.100000000000001 0 0
1.178571428571429 0 0
1.257142857142858 0 0
1.335714285714286 0 0
1.414285714285715 0 0
1.492857142857144 0 0
1.571428571428573 0 0
1.650000000000001 0 0
1.728571428571429 0 0
1.807142857142858 0 0
1.885714285714287 0 0
1.964285714285715 0 0
2.042857142857144 0 0
2.121428571428572 0 0
1 5 0 1
73
0.2353553390593275 0.1646446609406727 0
1 6 0 1
74
0.2353553390593274 0.2353553390593274 0
1 7 0 1
75
0.1646446609406726 0.2353553390593274 0
1 8 0 1
76
0.1646446609406727 0.1646446609406725 0
2 1 0 178
77
78
79
80
81
82
83
84
85
86
87
88
89
90
91
92
93
94
95
96
97
98
99
100
101
102
103
104
105
106
107
108
109
110
111
112
113
114
115
116
117
118
119
120
121
122
123
124
125
126
127
128
129
130
131
132
133
134
135
136
137
138
139
140
141
142
143
144
145
146
147
148
149
150
151
152
153
154
155
156
157
158
159
160
161
162
163
164
165
166
167
168
169
170
171
172
173
174
175
176
177
178
179
180
181
182
183
184
185
186
187
188
189
190
191
192
193
194
195
196
197
198
199
200
201
202
203
204
205
206
207
208
209
210
211
212
213
214
215
216
217
218
219
220
221
222
223
224
225
226
227
228
229
230
231
232
233
234
235
236
237
238
239
240
241
242
243
244
245
246
247
248
249
250
251
252
253
254
0.4316257719454214 0.3442120773921926 0
0.5801232433397029 0.06627633120922882 0
0.7507721484964059 0.3536547867418405 0
0.908804547956495 0.06799570366971747 0
1.702671644986936 0.05949325824447024 0
1.925078771865026 0.3421397908351411 0
1.377091815340175 0.3430992798694266 0
1.140859857682456 0.3311053977713021 0
1.532142857142857 0.3419551468455084 0
0.2751135197771497 0.1689894877621136 0
2.144557518016853 0.1699705748393802 0
0.4331975622112674 0.05684627000620315 0
0.2774309715401257 0.2323263349363024 0
0.9821428571428568 0.3419551468455084 0
1.771596463325813 0.343980392251971 0
1.215040974165845 0.06941669252777741 0
1.847234526585529 0.06927650732952553 0
1.060714285714286 0.0680448531544916 0
1.451208012160034 0.06765527534531818 0
0.5849653912344526 0.3318350015074087 0
0.7448916090937663 0.08047873119892834 0
2.00337477268386 0.06982470320126186 0
0.126146185482893 0.232379702716752 0
0.2566303363546303 0.2736083932602329 0
0.3000723199790837 0.2675383006476839 0
0.1248263666186669 0.1691639598694171 0
0.1686717132670482 0.2761024626006075 0
0.2603638462744924 0.1323849990157945 0
0.3060040486882452 0.1365468233586832 0
0.1382016860840531 0.1304303853271234 0
2.078456013247711 0.3406661066157864 0
0.3198324243345074 0.1817735669064512 0
0.06559370598392111 0.3068400644763472 0
0.3564558842958849 0.1446687158730799 0
0.3747774735558089 0.1976900886502362 0
0.09405458919809373 0.1353388987114311 0
0.2847444464898787 0.3119963849392706 0
0.2276247449311646 0.3163563616821021 0
0.3403140471968201 0.2973648456583944 0
0.4156207952888235 0.1572610068870401 0
0.4342781489544637 0.2159570168696885 0
0.4805076265970026 0.1727145539948601 0
0.5017709880210738 0.2320714390996476 0
0.550316594950272 0.186806604665905 0
0.1976320748572874 0.05704724198389391 0
0.05554669077965291 0.2442485033821836 0
0.3277857933420876 0.08547071832114772 0
0.1053899868942998 0.08970497666992683 0
0.2656332691139206 0.05897240933883402 0
0.5716314605336512 0.2518021238323848 0
0.6235871709600989 0.2012736547954712 0
0.6437036591229717 0.2721754316984627 0
0.6971538885702135 0.216156788866293 0
0.6794113218115464 0.1434291899876643 0
0.7523931740695597 0.1609497604024976 0
0.7746222614069758 0.2352644056474738 0
0.8276278394509833 0.1827165256540912 0
0.8523199170048493 0.2542090216627233 0
0.9044205903438667 0.1997269490541063 0
0.07681494464199545 0.1871925876392126 0
0.9320791805137542 0.282005595696017 0
0.9810158551276384 0.2156243303854607 0
0.9485492180493094 0.1402636384116482 0
1.034461548031461 0.1453694016719022 0
1.057838729232255 0.2310665415245059 0
1.112341334097122 0.1772232955075439 0
1.133749970539527 0.2523111755484773 0
1.18995217190055 0.1968288757278676 0
1.208461058356626 0.2709369129159176 0
1.264412137396667 0.2139601552141918 0
1.283749479293483 0.2874711630148769 0
1.337287292515664 0.2290474983670619 0
1.318077175311189 0.1565086657605756 0
1.393508063866566 0.1770063415780722 0
1.410216450406433 0.2634245668585797 0
1.469168315789494 0.198379450757254 0
1.379825094268578 0.1096236787534073 0
0.5028976449155724 0.0613870987088885 0
0.5021108478761269 0.3437981853461783 0
1.497330646585906 0.2729926870005753 0
1.547505970819176 0.2116950981961098 0
1.515942710249744 0.1292278625481046 0
1.596988281900098 0.1544189227970569 0
1.623906621192614 0.2300363824366894 0
1.673753916663845 0.1756063011422524 0
1.691102749471814 0.25584266749389 0
1.758520298495819 0.2086165233815267 0
1.636721978103907 0.292799040966244 0
0.3867193319270041 0.2542373510028456 0
0.8691903902561736 0.3290857809653009 0
2.002970083233075 0.3421616872927165 0
1.964303610426728 0.2747024902028984 0
1.886179359242693 0.2742321631714614 0
1.925668289325797 0.2072096550121818 0
2.003219694570707 0.2086594985364951 0
1.846230865333321 0.2069016190567834 0
1.96451587801036 0.1399332835269293 0
2.03819082176109 0.1402890471450833 0
2.084779403157385 0.07092121441203253 0
2.041428819306288 0.2757202404870037 0
2.118976745461417 0.2753400876359353 0
1.925569335614715 0.07076033057167741 0
1.581558871895467 0.07441512100414052 0
1.303497222116436 0.0739564979862414 0
1.808068916008081 0.2738805601351715 0
2.083372443811814 0.2070062307920668 0
0.8308125040772434 0.0676247395176576 0
1.055949071187542 0.3431317901552542 0
1.453987437769705 0.3402452800956817 0
1.138791577630306 0.06569220360025693 0
1.770121201888943 0.06617964613234531 0
0.120353018041753 0.3510776955168157 0
1.847296775549793 0.3423721510656241 0
1.807852837563092 0.1365832748976366 0
1.886178622072136 0.1384441117324557 0
0.6592447364976479 0.06984475312159219 0
0.9821428571428575 0.0666504027710641 0
1.244426038514301 0.1396288948615222 0
0.05133331781753614 0.1004725216275436 0
0.6711870134959801 0.3435627417639997 0
0.0991366684210595 0.271013577727551 0
0.4506484294620469 0.2791485564903494 0
1.222795101643926 0.344893137140487 0
2.145851415444501 0.1049544232982158 0
0.1964659500794179 0.360154686050298 0
1.572192056857572 0.2824258599326035 0
0.6019305652883666 0.1334026170429807 0
1.72962019928424 0.1262746487852185 0
0.8000681243901451 0.3047782896041752 0
1.166758682718021 0.1274713157932282 0
0.8702570403188563 0.1304490271467253 0
0.263830110324363 0.3610345126940497 0
1.689157746753989 0.3352691649883618 0
0.7229178492471153 0.2875987407203741 0
0.1305701791277927 0.3010291060222854 0
1.01298487180079 0.2820846200025214 0
0.3729322710717067 0.353133134474782 0
0.3257968403600282 0.2329900696859876 0
0.3152213178736963 0.3467057755532993 0
1.300123443218869 0.351514037291804 0
1.600388298118683 0.348499045611094 0
1.441930439266883 0.1363785217964313 0
0.526911977052834 0.125704266783826 0
2.141045048310558 0.3310333823297551 0
1.517684213572521 0.05969715139704085 0
0.3941843361199932 0.1023152291790401 0
0.04772882828296243 0.1456834962085377 0
0.2049268894424758 0.2878521613174636 0
0.05124151660793785 0.3620862435551661 0
2.149381341458017 0.2261300453201431 0
0.4578568549237433 0.1152990012397177 0
1.65049233391227 0.099733398363271 0
1.1 0.1160379325344009 0
0.8013275420352397 0.1243666065731312 0
0.5239969231862698 0.2875934766871193 0
0.1579876501724855 0.09193595830971631 0
0.1972656279395351 0.1095728226273839 0
0.3752618371864558 0.05164330478204379 0
1.746820315754619 0.2842534906180335 0
2.099350320438329 0.1386282980973557 0
0.1340231138865681 0.2659768861134323 0
1.084988791549064 0.2871607626720591 0
0.8209861749670053 0.3637110856313238 0
0.05770252449475555 0.04825051888890838 0
2.150411878006091 0.04884179420871634 0
1.345529581690605 0.290820639615763 0
0.1293361064723226 0.04715633046513126 0
0.1726404284240088 0.1339481512405222 0
0.289634751202362 0.203215891858171 0
0.2253743488729525 0.1296292743086072 0
0.2386137735056908 0.09780031345546653 0
0.1135148069674131 0.2025436897723339 0
0.09296176749714768 0.2264774940729442 0
0.9234979839581463 0.3545685836825537 0
1.375972482504597 0.04627222681364704 0
0.2796801461848872 0.1022350526979852 0
0.1741306843220845 0.3124595464088207 0
0.3964479703205998 0.3056191930037128 0
$EndNodes
$Elements
9 508 1 508
1 1 1 6
1 1 9 
2 9 10 
3 10 11 
4 11 12 
5 12 13 
6 13 2 
1 2 1 28
7 2 14 
8 14 15 
9 15 16 
10 16 17 
11 17 18 
12 18 19 
13 19 20 
14 20 21 
15 21 22 
16 22 23 
17 23 24 
18 24 25 
19 25 26 
20 26 27 
21 27 28 
22 28 29 
23 29 30 
24 30 31 
25 31 32 
26 32 33 
27 33 34 
28 34 35 
29 35 36 
30 36 37 
31 37 38 
32 38 39 
33 39 40 
34 40 3 
1 3 1 6
35 3 41 
36 41 42 
37 42 43 
38 43 44 
39 44 45 
40 45 4 
1 4 1 28
41 4 46 
42 46 47 
43 47 48 
44 48 49 
45 49 50 
46 50 51 
47 51 52 
48 52 53 
49 53 54 
50 54 55 
51 55 56 
52 56 57 
53 57 58 
54 58 59 
55 59 60 
56 60 61 
57 61 62 
58 62 63 
59 63 64 
60 64 65 
61 65 66 
62 66 67 
63 67 68 
64 68 69 
65 69 70 
66 70 71 
67 71 72 
68 72 1 
1 5 1 2
69 5 73 
70 73 6 
1 6 1 2
71 6 74 
72 74 7 
1 7 1 2
73 7 75 
74 75 8 
1 8 1 2
75 8 76 
76 76 5 
2 1 2 432
77 123 125 49 
78 66 228 179 
79 140 193 94 
80 43 136 122 
81 14 220 2 
82 101 214 115 
83 151 185 83 
84 240 243 124 
85 100 224 74 
86 97 131 130 
87 197 211 109 
88 66 179 65 
89 139 193 140 
90 43 223 136 
91 172 181 163 
92 143 145 84 
93 81 228 66 
94 130 192 97 
95 115 214 165 
96 20 217 209 
97 49 234 123 
98 209 217 164 
99 123 252 125 
100 89 245 214 
101 156 185 151 
102 114 208 201 
103 145 199 84 
104 181 235 163 
105 109 211 188 
106 205 210 132 
107 83 242 151 
108 62 180 61 
109 126 128 96 
110 162 209 164 
111 130 203 192 
112 162 235 209 
113 158 218 95 
114 95 221 158 
115 195 240 124 
116 46 243 240 
117 79 210 205 
118 48 121 47 
119 163 190 172 
120 192 203 78 
121 89 214 101 
122 12 220 177 
123 161 228 204 
124 42 122 109 
125 77 198 155 
126 48 125 121 
127 61 180 92 
128 72 175 71 
129 80 193 139 
130 201 208 38 
131 98 174 173 
132 174 182 171 
133 96 231 126 
134 51 154 88 
135 204 228 81 
136 128 196 96 
137 42 109 41 
138 13 220 12 
139 94 229 140 
140 136 249 122 
141 70 178 69 
142 62 251 180 
143 43 122 42 
144 147 199 145 
145 98 175 174 
146 85 185 156 
147 163 235 162 
148 139 207 80 
149 97 230 131 
150 71 175 98 
151 173 178 98 
152 98 178 70 
153 36 77 35 
154 69 178 93 
155 198 231 155 
156 34 155 96 
157 51 88 50 
158 171 176 168 
159 78 219 154 
160 77 155 35 
161 176 177 107 
162 178 191 93 
163 122 197 109 
164 171 182 176 
165 45 195 44 
166 137 212 90 
167 203 219 78 
168 78 154 52 
169 147 216 199 
170 49 125 48 
171 15 167 107 
172 167 176 107 
173 93 191 190 
174 52 154 51 
175 44 223 43 
176 177 226 12 
177 168 176 167 
178 155 231 96 
179 93 190 187 
180 214 245 108 
181 15 107 14 
182 188 225 109 
183 170 171 168 
184 125 247 121 
185 173 174 171 
186 71 98 70 
187 97 192 54 
188 39 201 38 
189 90 250 137 
190 53 78 52 
191 170 173 171 
192 95 218 153 
193 16 167 15 
194 82 167 16 
195 176 182 177 
196 82 168 167 
197 174 236 182 
198 35 155 34 
199 84 238 143 
200 181 189 91 
201 169 170 168 
202 32 79 31 
203 34 96 33 
204 169 189 181 
205 82 189 169 
206 80 183 56 
207 55 183 97 
208 55 97 54 
209 57 80 56 
210 56 183 55 
211 29 90 28 
212 27 184 84 
213 90 184 28 
214 28 184 27 
215 92 186 60 
216 67 187 81 
217 68 187 67 
218 60 186 59 
219 22 185 85 
220 19 91 18 
221 22 85 21 
222 23 185 22 
223 61 92 60 
224 59 94 58 
225 27 84 26 
226 69 93 68 
227 59 186 94 
228 64 95 63 
229 67 81 66 
230 17 82 16 
231 24 83 23 
232 83 185 23 
233 93 187 68 
234 162 164 160 
235 159 160 157 
236 161 163 162 
237 161 162 160 
238 159 161 160 
239 158 179 159 
240 158 159 157 
241 152 158 157 
242 152 157 156 
243 152 156 151 
244 149 180 153 
245 149 153 150 
246 150 152 151 
247 150 151 148 
248 146 149 148 
249 149 150 148 
250 146 148 147 
251 146 147 145 
252 144 146 145 
253 144 145 143 
254 142 144 143 
255 142 143 141 
256 40 188 39 
257 140 142 141 
258 140 141 138 
259 169 172 170 
260 135 139 138 
261 17 189 82 
262 91 189 18 
263 139 140 138 
264 137 166 134 
265 135 138 137 
266 135 137 134 
267 133 135 134 
268 156 202 85 
269 133 134 132 
270 82 169 168 
271 18 189 17 
272 131 133 132 
273 80 207 183 
274 190 204 187 
275 169 181 172 
276 153 251 95 
277 131 132 129 
278 173 191 178 
279 127 130 129 
280 130 131 129 
281 172 191 170 
282 57 193 80 
283 94 193 58 
284 211 253 188 
285 190 191 172 
286 180 194 92 
287 54 192 53 
288 37 213 36 
289 53 192 78 
290 32 196 79 
291 96 196 33 
292 144 194 146 
293 149 194 180 
294 170 191 173 
295 127 129 128 
296 107 220 14 
297 180 251 153 
298 58 193 57 
299 117 165 111 
300 84 199 26 
301 127 128 126 
302 90 212 184 
303 11 87 10 
304 154 227 88 
305 37 215 213 
306 146 194 149 
307 121 243 47 
308 163 204 190 
309 157 202 156 
310 164 202 160 
311 207 230 183 
312 33 196 32 
313 114 224 100 
314 142 206 144 
315 165 214 111 
316 120 127 126 
317 72 241 175 
318 182 236 87 
319 26 199 25 
320 10 200 9 
321 127 203 130 
322 120 126 119 
323 134 205 132 
324 135 207 139 
325 197 249 99 
326 212 238 184 
327 20 209 19 
328 3 225 40 
329 166 250 30 
330 118 120 119 
331 138 212 137 
332 179 221 65 
333 118 119 117 
334 24 216 83 
335 132 210 129 
336 195 223 44 
337 87 200 10 
338 21 217 20 
339 117 198 165 
340 152 218 158 
341 153 218 150 
342 65 221 64 
343 6 89 74 
344 50 234 49 
345 159 228 161 
346 79 239 31 
347 160 202 157 
348 30 250 29 
349 95 251 63 
350 151 242 148 
351 216 242 83 
352 116 118 117 
353 188 201 39 
354 196 210 79 
355 137 250 166 
356 119 198 117 
357 75 99 8 
358 1 241 72 
359 188 253 201 
360 8 102 76 
361 41 225 3 
362 12 226 11 
363 142 229 206 
364 199 216 25 
365 73 86 6 
366 116 117 111 
367 114 253 224 
368 158 221 179 
369 198 254 165 
370 77 254 198 
371 36 213 77 
372 183 230 97 
373 201 253 114 
374 105 108 86 
375 92 206 186 
376 128 210 196 
377 140 229 142 
378 219 227 154 
379 46 240 4 
380 113 114 100 
381 164 217 202 
382 187 204 81 
383 7 103 75 
384 47 243 46 
385 87 226 182 
386 110 116 111 
387 38 208 37 
388 99 237 197 
389 9 241 1 
390 184 238 84 
391 182 226 177 
392 161 204 163 
393 110 111 108 
394 166 205 134 
395 194 206 92 
396 144 206 194 
397 120 203 127 
398 133 207 135 
399 119 231 198 
400 205 239 79 
401 112 195 124 
402 109 225 41 
403 102 136 112 
404 19 209 91 
405 40 225 188 
406 101 115 113 
407 88 234 50 
408 141 212 138 
409 177 220 107 
410 105 110 108 
411 129 210 128 
412 25 216 24 
413 75 237 99 
414 105 123 110 
415 147 242 216 
416 89 101 100 
417 209 235 91 
418 175 236 174 
419 133 230 207 
420 89 100 74 
421 202 217 85 
422 85 217 21 
423 120 219 203 
424 150 218 152 
425 104 105 86 
426 101 113 100 
427 141 238 212 
428 113 208 114 
429 64 221 95 
430 102 106 76 
431 30 239 166 
432 175 241 200 
433 4 240 45 
434 103 237 75 
435 112 124 106 
436 73 104 86 
437 206 229 186 
438 222 227 116 
439 110 222 116 
440 122 249 197 
441 111 214 108 
442 179 228 159 
443 118 219 120 
444 186 229 94 
445 165 254 115 
446 91 235 181 
447 102 112 106 
448 112 223 195 
449 131 230 133 
450 108 245 86 
451 102 248 136 
452 143 238 141 
453 11 226 87 
454 31 239 30 
455 118 227 219 
456 148 242 147 
457 232 243 121 
458 29 250 90 
459 126 231 119 
460 63 251 62 
461 213 215 115 
462 208 215 37 
463 116 227 118 
464 233 246 5 
465 105 252 123 
466 115 215 113 
467 88 227 222 
468 7 224 103 
469 200 236 175 
470 123 222 110 
471 247 252 104 
472 87 236 200 
473 45 240 195 
474 200 241 9 
475 76 244 5 
476 136 223 112 
477 5 246 73 
478 211 237 103 
479 124 232 106 
480 113 215 208 
481 233 247 246 
482 5 244 233 
483 103 253 211 
484 246 247 104 
485 232 244 106 
486 166 239 205 
487 115 254 213 
488 6 245 89 
489 197 237 211 
490 213 254 77 
491 248 249 136 
492 233 244 232 
493 222 234 88 
494 86 245 6 
495 99 248 8 
496 123 234 222 
497 8 248 102 
498 104 252 105 
499 106 244 76 
500 73 246 104 
501 121 247 233 
502 224 253 103 
503 124 243 232 
504 121 233 232 
505 125 252 247 
506 99 249 248 
507 2 220 13 
508 74 224 7 
$EndElements
