$MeshFormat
4.1 0 8
$EndMeshFormat
$PhysicalNames
6
1 1 "Right"
1 2 "Top"
1 3 "Left"
1 4 "Bottom"
1 5 "Circle"
2 6 "Interior"
$EndPhysicalNames
$Entities
9 8 1 0
1 2.2 0 0 0 
2 2.2 0.41 0 0 
3 0 0.41 0 0 
4 0 0 0 0 
5 0.2 0.15 0 0 
6 0.2 0.2 0 0 
7 0.25 0.2 0 0 
8 0.2 0.25 0 0 
9 0.15 0.2 0 0 
1 2.2 0 0 2.2 0.41 0 1 1 2 1 -2 
2 0 0.41 0 2.2 0.41 0 1 2 2 2 -3 
3 0 0 0 0 0.41 0 1 3 2 3 -4 
4 0 0 0 2.2 0 0 1 4 2 4 -1 
5 0.2 0.15 0 0.25 0.2 0 1 5 2 5 -7 
6 0.2 0.2 0 0.25 0.25 0 1 5 2 7 -8 
7 0.15 0.2 0 0.2 0.25 0 1 5 2 8 -9 
8 0.15 0.15 0 0.2 0.2 0 1 5 2 9 -5 
1 0 0 0 2.2 0.41 0 1 6 8 1 2 3 4 -8 -7 -6 -5 
$EndEntities
$Nodes
9 940 1 940
1 1 0 13
1
2
3
4
5
6
7
8
9
10
11
12
13
2.2 0 0
2.2 0.41 0
2.2 0.06833333333333333 0
2.2 0.1366666666666667 0
2.2 0.205 0
2.2 0.2733333333333334 0
2.2 0.3416666666666667 0
2.2 0.03416666666666666 0
2.2 0.1025 0
2.2 0.1708333333333333 0
2.2 0.2391666666666667 0
2.2 0.3075 0
2.2 0.3758333333333334 0
1 2 0 56
14
15
16
17
18
19
20
21
22
23
24
25
26
27
28
29
30
31
32
33
34
35
36
37
38
39
40
41
42
43
44
45
46
47
48
49
50
51
52
53
54
55
56
57
58
59
60
61
62
63
64
65
66
67
68
69
1.060714285714285 0.41 0
2.082142857142857 0.41 0
2.003571428571429 0.41 0
1.925 0.41 0
1.846428571428572 0.41 0
1.767857142857143 0.41 0
1.689285714285715 0.41 0
1.610714285714286 0.41 0
1.532142857142857 0.41 0
1.453571428571429 0.41 0
1.375 0.41 0
1.296428571428571 0.41 0
1.217857142857143 0.41 0
1.139285714285714 0.41 0
2.160714285714286 0.41 0
0.9821428571428567 0.41 0
0.9035714285714281 0.41 0
0.8249999999999995 0.41 0
0.7464285714285708 0.41 0
0.667857142857142 0.41 0
0.5892857142857135 0.41 0
0.5107142857142852 0.41 0
0.4321428571428567 0.41 0
0.353571428571428 0.41 0
0.2749999999999994 0.41 0
0.1964285714285708 0.41 0
0.1178571428571425 0.41 0
0.03928571428571415 0.41 0
1.1 0.41 0
2.121428571428571 0.41 0
2.042857142857143 0.41 0
1.964285714285715 0.41 0
1.885714285714286 0.41 0
1.807142857142857 0.41 0
1.728571428571429 0.41 0
1.65 0.41 0
1.571428571428572 0.41 0
1.492857142857143 0.41 0
1.414285714285714 0.41 0
1.335714285714286 0.41 0
1.257142857142857 0.41 0
1.178571428571428 0.41 0
0 0.41 0
1.021428571428571 0.41 0
0.9428571428571424 0.41 0
0.8642857142857139 0.41 0
0.7857142857142851 0.41 0
0.7071428571428564 0.41 0
0.6285714285714277 0.41 0
0.5499999999999994 0.41 0
0.4714285714285711 0.41 0
0.3928571428571423 0.41 0
0.3142857142857136 0.41 0
0.2357142857142851 0.41 0
0.1571428571428566 0.41 0
0.07857142857142829 0.41 0
1 3 0 12
70
71
72
73
74
75
76
77
78
79
80
81
0 0 0
0 0.3416666666666667 0
0 0.2733333333333333 0
0 0.205 0
0 0.1366666666666666 0
0 0.0683333333333333 0
0 0.3758333333333334 0
0 0.3075 0
0 0.2391666666666666 0
0 0.1708333333333333 0
0 0.1025 0
0 0.03416666666666665 0
1 4 0 55
82
83
84
85
86
87
88
89
90
91
92
93
94
95
96
97
98
99
100
101
102
103
104
105
106
107
108
109
110
111
112
113
114
115
116
117
118
119
120
121
122
123
124
125
126
127
128
129
130
131
132
133
134
135
136
1.139285714285715 0 0
0.1178571428571428 0 0
0.1964285714285713 0 0
0.2749999999999999 0 0
0.3535714285714284 0 0
0.4321428571428571 0 0
0.5107142857142856 0 0
0.5892857142857142 0 0
0.6678571428571427 0 0
0.7464285714285714 0 0
0.8250000000000002 0 0
0.9035714285714288 0 0
0.9821428571428577 0 0
1.060714285714286 0 0
0.03928571428571427 0 0
1.217857142857143 0 0
1.296428571428572 0 0
1.375 0 0
1.45357142857143 0 0
1.532142857142858 0 0
1.610714285714287 0 0
1.689285714285715 0 0
1.767857142857144 0 0
1.846428571428572 0 0
1.925000000000001 0 0
2.003571428571429 0 0
2.082142857142858 0 0
2.160714285714286 0 0
1.178571428571429 0 0
0.1571428571428571 0 0
0.2357142857142856 0 0
0.3142857142857141 0 0
0.3928571428571428 0 0
0.4714285714285713 0 0
0.5499999999999998 0 0
0.6285714285714284 0 0
0.7071428571428571 0 0
0.7857142857142858 0 0
0.8642857142857144 0 0
0.9428571428571432 0 0
1.021428571428572 0 0
1.100000000000001 0 0
0.07857142857142854 0 0
1.257142857142858 0 0
1.335714285714286 0 0
1.414285714285715 0 0
1.492857142857144 0 0
1.571428571428573 0 0
1.650000000000001 0 0
1.728571428571429 0 0
1.807142857142858 0 0
1.885714285714287 0 0
1.964285714285715 0 0
2.042857142857144 0 0
2.121428571428572 0 0
1 5 0 5
137
138
139
140
141
0.2 0.15 0
0.25 0.2 0
0.2353553390593275 0.1646446609406727 0
0.2176776695296638 0.1573223304703363 0
0.2426776695296637 0.1823223304703364 0
1 6 0 4
142
143
144
145
0.2 0.25 0
0.2353553390593274 0.2353553390593274 0
0.2426776695296637 0.2176776695296637 0
0.2176776695296637 0.2426776695296637 0
1 7 0 4
146
147
148
149
0.15 0.2 0
0.1646446609406726 0.2353553390593274 0
0.1823223304703363 0.2426776695296637 0
0.1573223304703363 0.2176776695296637 0
1 8 0 3
150
151
152
0.1646446609406727 0.1646446609406725 0
0.1573223304703363 0.1823223304703362 0
0.1823223304703364 0.1573223304703363 0
2 1 0 788
153
154
155
156
157
158
159
160
161
162
163
164
165
166
167
168
169
170
171
172
173
174
175
176
177
178
179
180
181
182
183
184
185
186
187
188
189
190
191
192
193
194
195
196
197
198
199
200
201
202
203
204
205
206
207
208
209
210
211
212
213
214
215
216
217
218
219
220
221
222
223
224
225
226
227
228
229
230
231
232
233
234
235
236
237
238
239
240
241
242
243
244
245
246
247
248
249
250
251
252
253
254
255
256
257
258
259
260
261
262
263
264
265
266
267
268
269
270
271
272
273
274
275
276
277
278
279
280
281
282
283
284
285
286
287
288
289
290
291
292
293
294
295
296
297
298
299
300
301
302
303
304
305
306
307
308
309
310
311
312
313
314
315
316
317
318
319
320
321
322
323
324
325
326
327
328
329
330
331
332
333
334
335
336
337
338
339
340
341
342
343
344
345
346
347
348
349
350
351
352
353
354
355
356
357
358
359
360
361
362
363
364
365
366
367
368
369
370
371
372
373
374
375
376
377
378
379
380
381
382
383
384
385
386
387
388
389
390
391
392
393
394
395
396
397
398
399
400
401
402
403
404
405
406
407
408
409
410
411
412
413
414
415
416
417
418
419
420
421
422
423
424
425
426
427
428
429
430
431
432
433
434
435
436
437
438
439
440
441
442
443
444
445
446
447
448
449
450
451
452
453
454
455
456
457
458
459
460
461
462
463
464
465
466
467
468
469
470
471
472
473
474
475
476
477
478
479
480
481
482
483
484
485
486
487
488
489
490
491
492
493
494
495
496
497
498
499
500
501
502
503
504
505
506
507
508
509
510
511
512
513
514
515
516
517
518
519
520
521
522
523
524
525
526
527
528
529
530
531
532
533
534
535
536
537
538
539
540
541
542
543
544
545
546
547
548
549
550
551
552
553
554
555
556
557
558
559
560
561
562
563
564
565
566
567
568
569
570
571
572
573
574
575
576
577
578
579
580
581
582
583
584
585
586
587
588
589
590
591
592
593
594
595
596
597
598
599
600
601
602
603
604
605
606
607
608
609
610
611
612
613
614
615
616
617
618
619
620
621
622
623
624
625
626
627
628
629
630
631
632
633
634
635
636
637
638
639
640
641
642
643
644
645
646
647
648
649
650
651
652
653
654
655
656
657
658
659
660
661
662
663
664
665
666
667
668
669
670
671
672
673
674
675
676
677
678
679
680
681
682
683
684
685
686
687
688
689
690
691
692
693
694
695
696
697
698
699
700
701
702
703
704
705
706
707
708
709
710
711
712
713
714
715
716
717
718
719
720
721
722
723
724
725
726
727
728
729
730
731
732
733
734
735
736
737
738
739
740
741
742
743
744
745
746
747
748
749
750
751
752
753
754
755
756
757
758
759
760
761
762
763
764
765
766
767
768
769
770
771
772
773
774
775
776
777
778
779
780
781
782
783
784
785
786
787
788
789
790
791
792
793
794
795
796
797
798
799
800
801
802
803
804
805
806
807
808
809
810
811
812
813
814
815
816
817
818
819
820
821
822
823
824
825
826
827
828
829
830
831
832
833
834
835
836
837
838
839
840
841
842
843
844
845
846
847
848
849
850
851
852
853
854
855
856
857
858
859
860
861
862
863
864
865
866
867
868
869
870
871
872
873
874
875
876
877
878
879
880
881
882
883
884
885
886
887
888
889
890
891
892
893
894
895
896
897
898
899
900
901
902
903
904
905
906
907
908
909
910
911
912
913
914
915
916
917
918
919
920
921
922
923
924
925
926
927
928
929
930
931
932
933
934
935
936
937
938
939
940
0.4316257719454214 0.3442120773921926 0
0.5801232433397029 0.06627633120922882 0
0.7507721484964059 0.3536547867418405 0
0.908804547956495 0.06799570366971747 0
1.702671644986936 0.05949325824447024 0
1.925078771865026 0.3421397908351411 0
1.377091815340175 0.3430992798694266 0
1.140859857682456 0.3311053977713021 0
1.532142857142857 0.3419551468455084 0
0.2751135197771497 0.1689894877621136 0
2.144557518016853 0.1699705748393802 0
0.4331975622112674 0.05684627000620315 0
0.2774309715401257 0.2323263349363024 0
0.9821428571428568 0.3419551468455084 0
1.771596463325813 0.343980392251971 0
1.215040974165845 0.06941669252777741 0
1.847234526585529 0.06927650732952553 0
1.060714285714286 0.0680448531544916 0
1.451208012160034 0.06765527534531818 0
0.5849653912344526 0.3318350015074087 0
0.7448916090937663 0.08047873119892834 0
2.00337477268386 0.06982470320126186 0
0.126146185482893 0.232379702716752 0
0.2566303363546303 0.2736083932602329 0
0.3000723199790837 0.2675383006476839 0
0.1248263666186669 0.1691639598694171 0
0.1686717132670482 0.2761024626006075 0
0.2603638462744924 0.1323849990157945 0
0.3060040486882452 0.1365468233586832 0
0.1382016860840531 0.1304303853271234 0
2.078456013247711 0.3406661066157864 0
0.3198324243345074 0.1817735669064512 0
0.06559370598392111 0.3068400644763472 0
0.3564558842958849 0.1446687158730799 0
0.3747774735558089 0.1976900886502362 0
0.09405458919809373 0.1353388987114311 0
0.2847444464898787 0.3119963849392706 0
0.2276247449311646 0.3163563616821021 0
0.3403140471968201 0.2973648456583944 0
0.4156207952888235 0.1572610068870401 0
0.4342781489544637 0.2159570168696885 0
0.4805076265970026 0.1727145539948601 0
0.5017709880210738 0.2320714390996476 0
0.550316594950272 0.186806604665905 0
0.1976320748572874 0.05704724198389391 0
0.05554669077965291 0.2442485033821836 0
0.3277857933420876 0.08547071832114772 0
0.1053899868942998 0.08970497666992683 0
0.2656332691139206 0.05897240933883402 0
0.5716314605336512 0.2518021238323848 0
0.6235871709600989 0.2012736547954712 0
0.6437036591229717 0.2721754316984627 0
0.6971538885702135 0.216156788866293 0
0.6794113218115464 0.1434291899876643 0
0.7523931740695597 0.1609497604024976 0
0.7746222614069758 0.2352644056474738 0
0.8276278394509833 0.1827165256540912 0
0.8523199170048493 0.2542090216627233 0
0.9044205903438667 0.1997269490541063 0
0.07681494464199545 0.1871925876392126 0
0.9320791805137542 0.282005595696017 0
0.9810158551276384 0.2156243303854607 0
0.9485492180493094 0.1402636384116482 0
1.034461548031461 0.1453694016719022 0
1.057838729232255 0.2310665415245059 0
1.112341334097122 0.1772232955075439 0
1.133749970539527 0.2523111755484773 0
1.18995217190055 0.1968288757278676 0
1.208461058356626 0.2709369129159176 0
1.264412137396667 0.2139601552141918 0
1.283749479293483 0.2874711630148769 0
1.337287292515664 0.2290474983670619 0
1.318077175311189 0.1565086657605756 0
1.393508063866566 0.1770063415780722 0
1.410216450406433 0.2634245668585797 0
1.469168315789494 0.198379450757254 0
1.379825094268578 0.1096236787534073 0
0.5028976449155724 0.0613870987088885 0
0.5021108478761269 0.3437981853461783 0
1.497330646585906 0.2729926870005753 0
1.547505970819176 0.2116950981961098 0
1.515942710249744 0.1292278625481046 0
1.596988281900098 0.1544189227970569 0
1.623906621192614 0.2300363824366894 0
1.673753916663845 0.1756063011422524 0
1.691102749471814 0.25584266749389 0
1.758520298495819 0.2086165233815267 0
1.636721978103907 0.292799040966244 0
0.3867193319270041 0.2542373510028456 0
0.8691903902561736 0.3290857809653009 0
2.002970083233075 0.3421616872927165 0
1.964303610426728 0.2747024902028984 0
1.886179359242693 0.2742321631714614 0
1.925668289325797 0.2072096550121818 0
2.003219694570707 0.2086594985364951 0
1.846230865333321 0.2069016190567834 0
1.96451587801036 0.1399332835269293 0
2.03819082176109 0.1402890471450833 0
2.084779403157385 0.07092121441203253 0
2.041428819306288 0.2757202404870037 0
2.118976745461417 0.2753400876359353 0
1.925569335614715 0.07076033057167741 0
1.581558871895467 0.07441512100414052 0
1.303497222116436 0.0739564979862414 0
1.808068916008081 0.2738805601351715 0
2.083372443811814 0.2070062307920668 0
0.8308125040772434 0.0676247395176576 0
1.055949071187542 0.3431317901552542 0
1.453987437769705 0.3402452800956817 0
1.138791577630306 0.06569220360025693 0
1.770121201888943 0.06617964613234531 0
0.120353018041753 0.3510776955168157 0
1.847296775549793 0.3423721510656241 0
1.807852837563092 0.1365832748976366 0
1.886178622072136 0.1384441117324557 0
0.6592447364976479 0.06984475312159219 0
0.9821428571428575 0.0666504027710641 0
1.244426038514301 0.1396288948615222 0
0.05133331781753614 0.1004725216275436 0
0.6711870134959801 0.3435627417639997 0
0.0991366684210595 0.271013577727551 0
0.4506484294620469 0.2791485564903494 0
1.222795101643926 0.344893137140487 0
2.145851415444501 0.1049544232982158 0
0.1964659500794179 0.360154686050298 0
1.572192056857572 0.2824258599326035 0
0.6019305652883666 0.1334026170429807 0
1.72962019928424 0.1262746487852185 0
0.8000681243901451 0.3047782896041752 0
1.166758682718021 0.1274713157932282 0
0.8702570403188563 0.1304490271467253 0
0.263830110324363 0.3610345126940497 0
1.689157746753989 0.3352691649883618 0
0.7229178492471153 0.2875987407203741 0
0.1305701791277927 0.3010291060222854 0
1.01298487180079 0.2820846200025214 0
0.3729322710717067 0.353133134474782 0
0.3257968403600282 0.2329900696859876 0
0.3152213178736963 0.3467057755532993 0
1.300123443218869 0.351514037291804 0
1.600388298118683 0.348499045611094 0
1.441930439266883 0.1363785217964313 0
0.526911977052834 0.125704266783826 0
2.141045048310558 0.3310333823297551 0
1.517684213572521 0.05969715139704085 0
0.3941843361199932 0.1023152291790401 0
0.04772882828296243 0.1456834962085377 0
0.2049268894424758 0.2878521613174636 0
0.05124151660793785 0.3620862435551661 0
2.149381341458017 0.2261300453201431 0
0.4578568549237433 0.1152990012397177 0
1.65049233391227 0.099733398363271 0
1.1 0.1160379325344009 0
0.8013275420352397 0.1243666065731312 0
0.5239969231862698 0.2875934766871193 0
0.1579876501724855 0.09193595830971631 0
0.1972656279395351 0.1095728226273839 0
0.3752618371864558 0.05164330478204379 0
1.746820315754619 0.2842534906180335 0
2.099350320438329 0.1386282980973557 0
0.1340231138865681 0.2659768861134323 0
1.084988791549064 0.2871607626720591 0
0.8209861749670053 0.3637110856313238 0
0.05770252449475555 0.04825051888890838 0
2.150411878006091 0.04884179420871634 0
1.345529581690605 0.290820639615763 0
0.1293361064723226 0.04715633046513126 0
0.1726404284240088 0.1339481512405222 0
0.289634751202362 0.203215891858171 0
0.2253743488729525 0.1296292743086072 0
0.2386137735056908 0.09780031345546653 0
0.1135148069674131 0.2025436897723339 0
0.09296176749714768 0.2264774940729442 0
0.9234979839581463 0.3545685836825537 0
1.375972482504597 0.04627222681364704 0
0.2796801461848872 0.1022350526979852 0
0.1741306843220845 0.3124595464088207 0
0.3964479703205998 0.3056191930037128 0
0.2967095312280041 0.07222156382999087 0
0.2899594916998174 0.02948620466941701 0
0.3210357538139008 0.04273535916057386 0
1.650246166956135 0.0498666991816355 0
1.616025602903868 0.08707425968370576 0
1.615779435947734 0.03720756050207026 0
1.008302202587159 0.1060099022214832 0
1.021428571428572 0.06734762796277785 0
1.047587916872873 0.1067071274131969 0
0.03840747232099773 0.1960962938196063 0
0.06618081771082418 0.2157205455106981 0
0.02777334538982645 0.2246242516910918 0
2.131236809869565 0.3705166911648775 0
2.170522524155279 0.3705166911648775 0
0.3129345801695559 0.2502641851668357 0
0.3330554437784242 0.265177457672191 0
0.3201931835879519 0.2824515731530391 0
1.432101944088069 0.3018349234771307 0
1.41553962655494 0.3416722799825542 0
1.393654132873304 0.3032619233640031 0
0.09351931548353908 0.04770342467701982 0
0.1173630466833112 0.06843065356752905 0
0.08154625569452767 0.06897774777941761 0
0.2307786128985531 0.2807302772888483 0
0.2201411142509016 0.2616037501883955 0
0.2459928377069788 0.2544818661597801 0
0.748642391581663 0.120714245800713 0
0.715902247940553 0.1521894751950809 0
0.7121514654526564 0.1119539605932963 0
0.1148534237744261 0.2860213418749182 0
0.09808194255585691 0.3039345852493163 0
0.08236518720249031 0.2889268211019491 0
1.57649372166202 0.03720756050207026 0
0.9653460375960834 0.1034570205913562 0
0.9915053830403852 0.1428165200417752 0
0.02386441414148122 0.1753417481042688 0
0.06227188646247894 0.1664380419238752 0
1.827149890670701 0.2403910895959774 0
1.78329460725195 0.2412485417583491 0
1.80237558191457 0.207759071219155 0
1.171105514448076 0.2616240442321974 0
1.174660458019541 0.3010211553436098 0
1.137304914110992 0.2917082866598897 0
1.676581989449603 0.07961332830387062 0
1.676335822493468 0.02974662912223512 0
0.6693280291545971 0.1066369715546282 0
0.7020681727957071 0.07516174216026027 0
0.3562580861435162 0.2436137103444166 0
0.3635166895619121 0.27580109833062 0
1.625194149059341 0.379249522805547 0
1.644773022436336 0.3418841052997279 0
1.669578873376995 0.3726345824941809 0
0.3447737757360849 0.0258216523910219 0
0.3515238152642717 0.06855701155159576 0
1.618555138111295 0.320649043288669 0
1.662939862428948 0.3140341029773029 0
0.3037329697634874 0.09385288550956647 0
0.2726567076494039 0.08060373101840962 0
0.2835328613712438 0.2177711133972367 0
0.3077157957811951 0.2181029807720793 0
0.301613905950077 0.232658202311145 0
1.475659042177806 0.3066189835481285 0
1.453773548496169 0.2682086269295775 0
0.2457274276277638 0.3386954371880759 0
0.2301480302018905 0.3605945993721739 0
0.2120453475052912 0.3382555238662001 0
1.215628080000276 0.3079150250282023 0
1.181827479663191 0.3379992674558946 0
1.77744461588135 0.2790670253766025 0
1.752670307125219 0.2464350069997801 0
0.1254615985847728 0.3260534007695506 0
0.09297336201283705 0.3289588799965815 0
0.7614929868186302 0.2961885151622746 0
0.7487700553270455 0.261431573183924 0
0.7873451928985604 0.2700213476258245 0
1.36131069851539 0.3169599597425948 0
1.377873016048519 0.2771226032371713 0
1.319605753915361 0.0369782489931207 0
1.280320039629647 0.0369782489931207 0
0.6076675598283114 0.2619887777654237 0
0.6143345251787121 0.3020052166029357 0
0.5782984258840519 0.2918185626698968 0
1.690130248112902 0.2955559162411259 0
1.663912363787861 0.274320854230067 0
0.6406709435499565 0.1384159035153225 0
0.6305876508930073 0.1016236850822864 0
1.718961532613216 0.2700480790559617 0
1.717989031254304 0.3097613278031977 0
1.478936574758313 0.1328031921722679 0
1.446569225713458 0.1020168985708747 0
1.483575361204889 0.09844156894671138 0
1.484446112866277 0.06367621337117951 0
1.516813461911132 0.09446250697257272 0
0.05451792115614584 0.07436152025822598 0
0.07836165235591797 0.09508874914873522 0
0.1039537675218756 0.02357816523256563 0
0.06813697653309204 0.02412525944445419 0
0.7368449988717607 0.3206267637311073 0
0.7754201364432756 0.3292165381730078 0
0.2166731802857865 0.02852362099194695 0
0.1773874660000723 0.02852362099194695 0
1.783186568029456 0.1725998991395817 0
1.827041851448207 0.17174244697721 0
0.5910269043140348 0.09983947412610476 0
0.6196839899186755 0.06806054216541051 0
0.2887516457596047 0.2499323177919932 0
2.170522524155279 0.3021833578315443 0
2.130010896885987 0.3031867349828452 0
2.159488372730709 0.2743367104846344 0
1.662123125288058 0.1376698497527617 0
1.690056266598255 0.1130040235742447 0
1.701687057974043 0.1509404749637354 0
0.02777334538982645 0.2587909183577585 0
0.06057019838178701 0.2755442839292654 0
0.03279685299196056 0.2900866989048403 0
0.4411371007037341 0.311680316941271 0
0.4763796386690869 0.3114733709182639 0
0.4668683099107742 0.3440051313691854 0
0.2506737774141031 0.02948620466941701 0
0.231632671985604 0.05800982566136396 0
1.259269098141141 0.07168659525700941 0
1.236091915654352 0.0347083462638887 0
2.103103987292978 0.03546060720601626 0
2.063818273007264 0.03546060720601626 0
0.9454737025496762 0.06732305322039078 0
0.9286768830029022 0.1041296710406828 0
0.249772198019324 0.3855172563470248 0
0.2160901178968515 0.385077343025149 0
2.020782797222475 0.1050568751731726 0
2.001353349885725 0.1401111653360063 0
1.98394532534711 0.1048789933640956 0
2.060781632786452 0.173647638968575 0
2.043296069191261 0.2078328646642809 0
2.020705258165898 0.1744742728407892 0
0.5544811572103612 0.309714239097264 0
0.5478141918599605 0.2696978002597521 0
0.4871631081720719 0.03069354935444425 0
0.4680476035634199 0.05911668435754583 0
0.4523130668199193 0.02842313500310158 0
1.716145922135588 0.09288395351484437 0
0.6574453363094759 0.3078690867312312 0
0.6280762023652163 0.3376988716357042 0
0.03279685299196056 0.324253365571507 0
2.170522524155279 0.3363500244982109 0
1.080357142857143 0.09204139284444625 0
1.067230774015731 0.1307036671031516 0
0.08488835606957157 0.2068350408560784 0
0.0742542291384003 0.2353629987275639 0
1.944927524950215 0.03538016528583871 0
1.905641810664501 0.03538016528583871 0
1.355843384109441 0.02313611340682352 0
1.339734852310516 0.06011436239994422 0
1.253272290468705 0.316182150077682 0
1.246105268825054 0.2792040379653973 0
2.044077087920622 0.07037295880664719 0
2.061485112459238 0.1056051307785579 0
1.493065147456281 0.341100213470595 0
1.514736751864382 0.3074739169230418 0
1.724811523983817 0.2322295954377084 0
0.9094031291840828 0.1353563327791867 0
0.8895307941376757 0.09922236540822138 0
0.773109575564503 0.1024226688860298 0
0.7768603580523997 0.1426581834878144 0
2.023115957770502 0.03491235160063093 0
1.945042606812537 0.1053468070493034 0
1.964472054149287 0.07029251688646963 0
1.983830243484788 0.03491235160063093 0
0.4122414574012818 0.3771060386960963 0
0.4515271716869962 0.3771060386960963 0
1.886401931100122 0.07001841895060147 0
1.866474406149908 0.03463825366476277 0
0.4873226763241584 0.2833710165887344 0
0.5130538855311984 0.3156958310166488 0
0.5260554239380631 0.3768990926730891 0
0.5435381195552897 0.3378165934267935 0
0.567482695617226 0.3709175007537043 0
0.4130273525342051 0.02842313500310158 0
2.022324256938497 0.2421898695117494 0
2.002866214866508 0.2752113653449511 0
1.983761652498717 0.2416809943696968 0
0.5535176101962684 0.09599029899652742 0
0.5149048109842032 0.09354568274635726 0
0.5415104441276377 0.06383171495905866 0
0.486769709652349 0.3768990926730891 0
2.080202782383853 0.2755301640614695 0
2.098716379354564 0.3080030971258608 0
2.059942416276999 0.3081931735513951 0
1.905873978843426 0.1046022211520665 0
1.866706574328832 0.1038603095309906 0
0.07734167960035621 0.2576310405548673 0
2.062400631559051 0.2413632356395353 0
0.02566665890876807 0.08440292748043846 0
0.02566665890876807 0.1185695941471051 0
0.9725320261572721 0.2820451078492692 0
0.9975638644718234 0.3120198834240149 0
0.9571110188283054 0.3119803712707627 0
0.5644212711706003 0.1295534419134033 0
0.5264488224577861 0.03069354935444425 0
0.5650616216698514 0.03313816560461441 0
1.291936461256176 0.3194926001533405 0
1.261459272431398 0.3482035872161455 0
2.022913613045109 0.3760808436463582 0
2.040713048240393 0.3414138969542515 0
2.060656578052427 0.3753330533078932 0
2.022199451269682 0.3089409638898601 0
1.847015729817614 0.1375136933150461 0
1.827543682074311 0.1029298911135811 0
0.02386441414148122 0.1411750814376022 0
2.134179043459717 0.2507350664780392 0
2.174690670729008 0.2497316893267382 0
1.983636846829901 0.3084320887478075 0
1.788987019726017 0.101381460514991 0
1.808677864237236 0.06772807673093542 0
0.3047335877684347 0.1924947293823111 0
0.3228146323472678 0.2073818182962194 0
2.099942292338141 0.3753330533078932 0
0.08579726732484542 0.3565819695359909 0
0.05841761129592948 0.3344631540157567 0
1.964443991948252 0.2079345767743385 0
1.944985949876262 0.2409560726075401 0
0.2521235213098057 0.07838636139715027 0
0.2181229241814891 0.07742377771968022 0
1.983867786290533 0.1742963910317122 0
0.6831937968202525 0.0349223765607961 0
0.7260172331183117 0.04023936559946417 0
0.1768044036111373 0.385077343025149 0
0.9528204205505015 0.348261865264031 0
0.9277885822359502 0.3182870896892853 0
0.6043473359555657 0.03313816560461441 0
1.945092083668079 0.1735714692695556 0
1.41087776676773 0.1230011002749193 0
1.415516553214306 0.08863947704936273 0
1.983627898759395 0.3760808436463582 0
1.964024427549051 0.3421507390639288 0
1.944682243075371 0.3760698954175705 0
2.101174594636616 0.2411731592140011 0
1.944691191145877 0.3084211405190198 0
2.06877057109971 0.1394586726212195 0
2.091361382125072 0.1728172644447112 0
1.11292432461576 0.3091330802216806 0
1.109369381044295 0.2697359691102682 0
1.827682845778937 0.3081263556003978 0
1.809446619437803 0.3431762716587975 0
1.789832689666947 0.3089304761935713 0
1.905923824284245 0.2407209090918216 0
1.92524148483471 0.2744673266871799 0
0.7289575028196311 0.3818273933709202 0
0.7682432171053455 0.3818273933709202 0
0.6067684099029401 0.3709175007537043 0
1.866738067396243 0.3083021571185427 0
1.847124137625387 0.2740563616533164 0
1.88618777370741 0.3422559709503826 0
1.905629065553859 0.3081859770033012 0
0.8698085260168692 0.06781022159368753 0
0.8475491091814789 0.0338123697588288 0
0.8865451311211048 0.03399785183485873 0
0.8082633948957646 0.0338123697588288 0
0.7878520565855048 0.07405173535829297 0
0.765302947404026 0.04023936559946417 0
0.9258308454068191 0.03399785183485873 0
0.9624999999999996 0.3759775734227542 0
1.001785714285714 0.3759775734227542 0
1.077974535593771 0.3765658950776271 0
1.098404464434999 0.3371185939632781 0
1.120429928841228 0.370552698885651 0
1.019045964165199 0.3425434685003813 0
1.038688821308057 0.3765658950776271 0
1.176916275898075 0.06755444806401717 0
1.158681503100867 0.03284610180012847 0
1.196806201368637 0.0347083462638887 0
1.749346315230186 0.03308982306617266 0
1.736396423437939 0.06283645218840778 0
1.715621536779182 0.02974662912223512 0
1.788632029515901 0.03308982306617266 0
1.119395788815154 0.03284610180012847 0
1.473422290313424 0.3751226400478408 0
1.5125 0.3759775734227542 0
1.750083945948621 0.3769901961259855 0
1.789369660234335 0.3769901961259855 0
1.551785714285715 0.3759775734227542 0
1.43413657602771 0.3751226400478408 0
1.080357142857143 0.0340224265772458 0
1.041071428571429 0.0340224265772458 0
1.159715643126942 0.370552698885651 0
1.827188691864194 0.03463825366476277 0
1.099752931672296 0.06686852837737427 0
1.472032577508589 0.03382763767265909 0
1.432746863222874 0.03382763767265909 0
1.905396528789656 0.3760698954175705 0
1.356403050527231 0.3765496399347133 0
1.395688764812944 0.3765496399347133 0
1.630314299648261 0.2614177117014667 0
1.657504685332214 0.2429395249652897 0
1.610447451546356 0.1922276526168731 0
1.585706296005895 0.2208657403163996 0
1.572247126359637 0.1830570104965834 0
1.716137107579832 0.1921114122618895 0
1.68242833306783 0.2157244843180712 0
1.64883026892823 0.2028213417894709 0
1.635371099281972 0.1650126119696547 0
1.548750791072605 0.1018214917761226 0
1.589273576897782 0.1144170219005987 0
1.556465496074921 0.1418233926725808 0
1.53172434053446 0.1704614803721072 0
1.492555513019619 0.1638036566526793 0
1.508337143304335 0.2050372744766819 0
1.522418308702541 0.2423438925983425 0
1.4832494811877 0.2356860688789146 0
1.439692383097964 0.2309020088079168 0
1.310787198713812 0.1152325818734085 0
1.341661158192507 0.09179008836982436 0
1.348951134789883 0.1330661722569914 0
1.386666579067572 0.1433150101657397 0
1.355792619588878 0.1667575036693239 0
1.43133818982803 0.1876928961676631 0
1.4018622571365 0.2202154542183259 0
1.373751871461049 0.2462360326128208 0
1.365397678191115 0.2030269199725671 0
1.291244656353928 0.1852344104873837 0
1.327682233913427 0.1927780820638187 0
1.300849714956166 0.2215038267906269 0
1.310518385904573 0.2582593306909694 0
1.274080808345075 0.2507156591145344 0
1.236436597876647 0.2424485340650547 0
1.227182154648609 0.2053945154710297 0
1.199206615128588 0.2338828943218926 0
1.161851071220039 0.2245700256381725 0
1.151146752998836 0.1870260856177058 0
1.123045652318325 0.2147672355280106 0
1.095794349885891 0.2416888585364916 0
1.085090031664689 0.2041449185160249 0
0.09946222330659064 0.3805388477584078 0
0.1387479375923048 0.3805388477584078 0
1.073401441064291 0.1612963485897231 0
1.046150138631858 0.1882179715982041 0
1.019427292179947 0.2233454359549833 0
1.00773870157955 0.1804968660286815 0
1.866205112288007 0.2405668911141224 0
1.885949577329559 0.2070556370344826 0
0.926484904196588 0.1699952937328773 0
0.9647825365884739 0.1779439843985545 0
0.9427182227357526 0.2076756397197835 0
1.86650553063204 0.376186075532812 0
1.827219816346325 0.376186075532812 0
0.9006347853849639 0.305545688330659 0
0.8607551536305115 0.2916474013140121 0
0.8921995487593017 0.2681073086793702 0
0.9565475178206964 0.2488149630407389 0
0.9182498854288104 0.2408662723750616 0
0.8783702536743581 0.2269679853584148 0
0.866024214897425 0.1912217373540988 0
0.8399738782279162 0.2184627736584072 0
1.534761351721739 0.2777092734665894 0
1.552167457000214 0.312190503389056 0
0.8134710892059125 0.2447367136550986 0
0.8011250504289795 0.2089904656507825 0
0.7900105067602715 0.1718331430282944 0
0.7635077177382678 0.1981070830249857 0
0.8505347721980498 0.09903688333219145 0
1.768736518423666 0.1314289618414275 0
1.749870700586591 0.0962271474587819 0
1.377898788386587 0.07794795278352717 0
1.413590247332315 0.05696375107948261 0
0.7358880749885947 0.2257105972568834 0
0.7247735313198866 0.1885532746343953 0
1.925347250041248 0.1391886976296925 0
0.6514992463858227 0.1723514223915678 0
0.6882826051908799 0.1797929894269786 0
0.6603705297651562 0.2087152218308821 0
1.866204743702728 0.1726728653946195 0
1.905923455698967 0.1728268833723187 0
0.9625000000000004 0.03332520138553205 0
1.001785714285715 0.03332520138553205 0
0.1523504317249386 0.306744326215553 0
0.1472418511819187 0.3317686209628182 0
1.273961630315368 0.1067926964238818 0
1.229733506340073 0.1045227936946498 0
0.6439080825345382 0.0349223765607961 0
0.3436089926787101 0.381566567237391 0
0.3828947069644245 0.381566567237391 0
0.6891649353194182 0.3767813708819998 0
0.710979580996193 0.3486087642529201 0
0.6498792210337039 0.3767813708819998 0
1.217189105207425 0.1682288852946949 0
1.254419087955484 0.176794525037857 0
1.281251606912745 0.1480687803110489 0
0.6704287738465926 0.2441661102823778 0
0.6336454150415353 0.236724543246967 0
2.109750530779134 0.3358497444727707 0
0.4104987404407339 0.2350971839362671 0
0.3807484027414065 0.2259637198265409 0
0.4045278112551363 0.2068235527599623 0
1.200683265107677 0.3774465685702435 0
0.597609315746875 0.226537889313928 0
1.034466971494166 0.3126082050788878 0
2.172278759008426 0.1874852874196901 0
2.172278759008426 0.1533186207530234 0
0.4803772499196579 0.0883430499743031 0
0.4455272085675053 0.08607263562296043 0
0.3147535160797049 0.3783528877766497 0
0.3440767944727015 0.3499194550140406 0
0.163484090664805 0.05210178622451259 0
0.1432394818075899 0.02357816523256563 0
1.744070248890029 0.1674455860833726 0
1.559849013838374 0.2470604790643566 0
1.60445701748074 0.2876124504494237 0
1.598049339025093 0.2562311211846464 0
0.835792291177048 0.1274078168599282 0
0.8160700230562415 0.0959956730453944 0
0.2162758171868202 0.3021042614997829 0
0.2421275406428974 0.2949823774711675 0
1.139550008407571 0.1523473056503861 0
1.178355427309286 0.1621500957605479 0
0.3502871569579186 0.2153400791681119 0
0.5869518829551854 0.1940401297306881 0
0.5609740277419616 0.2193043642491449 0
2.135920224717331 0.02442089710435817 0
2.117595640581738 0.05988150431037444 0
2.121953919227591 0.1542994364683679 0
2.113964980914333 0.1884884028157235 0
1.239968979393391 0.3774465685702435 0
2.172925707722251 0.1208105449824412 0
2.172925707722251 0.08664387831577457 0
0.6127588681242327 0.167338135919226 0
0.5367012242773626 0.2419367814660162 0
0.5260437914856728 0.2094390218827763 0
0.8261940206974971 0.2794936556334492 0
0.8873388153313615 0.1650879881004158 0
0.09604921795910359 0.2487455359002476 0
0.1095539764900203 0.2294285983948481 0
0.1126414269519763 0.2516966402221515 0
1.048986831674927 0.2846226913372902 0
1.070468931368303 0.3151462764136567 0
1.708864587662709 0.3726345824941809 0
0.02562075830396892 0.386043121777583 0
0.06490647258968307 0.386043121777583 0
0.89634418710716 0.3418271823239273 0
0.8938918491219301 0.3822842918412768 0
0.8667380522709438 0.3695428904826504 0
0.5154121107736372 0.1797605793303826 0
0.4911393073090382 0.2023929965472538 0
0.9970003634642143 0.248854475193991 0
1.549621542733994 0.06705613620059069 0
1.544556392500547 0.02984857569852042 0
0.4680245684877687 0.224014227984668 0
0.4573928877757332 0.1943357854322743 0
1.317918864466578 0.380757018645902 0
1.338607629279522 0.3473066585806153 0
0.7100358689086644 0.2518777647933336 0
0.04953107305024929 0.1230780089180407 0
2.145204466730677 0.137462499068798 0
1.585908434773628 0.379249522805547 0
0.4424632892082553 0.247552786680019 0
0.4186838806945255 0.2666929537465975 0
1.455549377528188 0.1673789862768427 0
1.417719251566725 0.1566924316872518 0
1.505270678214833 0.02984857569852042 0
0.2637154857700629 0.2161631674681512 0
0.2563931552997266 0.2338408369978149 0
0.3840594900217993 0.0258216523910219 0
1.623740307906184 0.127076160580164 0
0.7858791617317056 0.3586829361865821 0
0.8033502303406452 0.3868555428156619 0
0.9331775634076444 0.3822842918412768 0
1.395129098395156 0.02313611340682352 0
1.341408437103135 0.2599340689914125 0
1.322826512454737 0.3211673384537835 0
0.448064210942913 0.1649877804409501 0
0.4249494721216436 0.1866090118783643 0
0.1584094840605854 0.3556161907835569 0
0.6970524313715477 0.3155807412421869 0
0.4762097087415603 0.2556099977949985 0
0.1453954232117828 0.2338675208880397 0
0.1380730927414465 0.216189851358376 0
2.175205939003046 0.02442089710435817 0
0.1852983172007512 0.3363071162295593 0
0.1374131833093334 0.1845819799347085 0
0.1447355137796698 0.1669043104050448 0
0.02562075830396892 0.3518764551109164 0
2.174690670729008 0.2155650226600715 0
1.106170667048561 0.1466306140209724 0
1.133379341359011 0.1217546241638146 0
1.278633150180863 0.380757018645902 0
0.2552344294182386 0.1668170743513931 0
0.2625567598885749 0.1844947438810568 0
0.3951991344223162 0.1774755477686382 0
0.2008777146266246 0.3144079540454614 0
0.1895287868822801 0.3001558538631421 0
0.4235481998913234 0.2923838747470311 0
0.3915836511238019 0.2799282720032792 0
0.4140368711330106 0.3249156351979527 0
0.402279021508564 0.3486726059334873 0
0.3129182365113763 0.1591601951325672 0
0.2974729720558286 0.1753815273342824 0
0.2905587842326974 0.1527681555603984 0
1.190899828441933 0.09844400416050281 0
1.152775130174164 0.09658175969674257 0
0.6833107541850435 0.2798870862094184 0
0.4923844159882886 0.1205016340117719 0
0.02885126224737777 0.02412525944445419 0
0.2561845957105217 0.3141763733106864 0
0.2706873914222545 0.2928023890997518 0
1.586290177488128 0.3154624527718488 0
0.1843358566335241 0.2630512313003037 0
0.1666581871038604 0.2557289008299675 0
2.146969429737435 0.1980503100797616 0
2.116376892634916 0.2165681380561049 0
0.3860383397923542 0.15096486138006 0
0.3656166789258469 0.1711794022616581 0
0.2890579123050383 0.3855172563470248 0
0.1300846496847305 0.2491782944150921 0
0.1165798911538138 0.2684952319204916 0
2.175205939003046 0.05858756377102484 0
0.3473049489451582 0.1897318277783437 0
0.3381441543151962 0.1632211413897655 0
0.8346292573231593 0.316932035284738 0
1.205592360616161 0.1335501053273752 0
0.5761235801193193 0.1601046108544429 0
0.8489424398849198 0.1565827764004082 0
0.5128839556036717 0.2598324578933834 0
0.8105271496785752 0.3342446876177495 0
0.07269395350781493 0.1179057101694873 0
0.09972228804619676 0.112521937690679 0
0.1008206556303312 0.1781782737543148 0
0.08543476692004459 0.1612657431753218 0
0.1094404779083803 0.1522514292904241 0
1.730377105039901 0.3396247786201664 0
0.3125292468433494 0.3046806152988325 0
0.2924083832344812 0.2897673427934773 0
0.4042296996988616 0.05424478739412347 0
1.035411800516523 0.2565755807635136 0
0.331229966492065 0.1406077696158816 0
0.1493338874136204 0.2506661125863798 0
0.3168949210151664 0.1110087708399155 0
0.3421208388189863 0.1150697170971138 0
1.314639530492044 0.2891459013153199 0
0.278351328166857 0.2705733469539584 0
0.267030653947378 0.2529673640982676 0
1.759208389540216 0.3141169414350022 0
2.092064861797857 0.1047747562546941 0
0.8144776907431115 0.1535415661136112 0
1.56626557763077 0.3452270962283012 0
0.538614286001553 0.1562554357248655 0
0.2831839474813688 0.1344659111872389 0
0.267738683025821 0.1506872433889541 0
1.071413760390659 0.2591136520982825 0
0.2742872784071209 0.3365154488166602 0
0.13151402635136 0.1497971725982702 0
0.1514231735123629 0.147537523133898 0
0.8426359446263596 0.3868555428156619 0
0.8450882826115895 0.3463984332983123 0
2.148131646725296 0.07689810875346607 0
2.115315409300943 0.08793781885512417 0
0.02885126224737777 0.05829192611112084 0
0.1513474135768081 0.2710396743570199 0
0.1217958364891764 0.1100676809985251 0
0.1161281376410734 0.1328846420192772 0
0.2478595926669099 0.1485148299782336 0
1.119395788815153 0.09086506806732891 0
0.4260205955218682 0.1088071152093789 0
0.4367388251062834 0.1362800040633789 0
0.4049025657044084 0.1297881180330401 0
0.375320110207939 0.12349197252606 0
0.5037098018249183 0.149209410389343 0
0.3683810087587099 0.3014920193310536 0
0.07089170874052808 0.1405111974599844 0
0.2823741354897559 0.1861026898101423 0
0.11917058679304 0.1858538248208755 0
0.09516487580470429 0.1948681387057732 0
0.469182240760373 0.1440067776172889 0
0.1436618783224041 0.06954614438742379 0
0.1778098625148865 0.07449160014680511 0
0.3277676825352582 0.3220353106058468 0
0.3566231591342634 0.3252489900665882 0
0.2895257140990296 0.3538701441236745 0
0.2113199884062438 0.1196010484679955 0
0.2126871744364763 0.1398146371543036 0
0.1986328139697676 0.129786411313692 0
0.2928420974365662 0.1193909380283342 0
0.2999828821817875 0.329351080246285 0
0.4136909491656303 0.07958074959262162 0
0.2024634447212379 0.2689260806587318 0
0.186799301354762 0.2819773119590355 0
2.122600867941415 0.1217913606977857 0
0.3609850647310404 0.09389297375009391 0
0.259146959845289 0.1000176830767259 0
0.2700219962296898 0.1173100258568898 0
0.2494888098900916 0.1150926562356305 0
0.1686425446823407 0.1492964060905974 0
0.1863202142120044 0.1419740756202611 0
0.23036484396614 0.14713696762464 0
0.1322966465071804 0.2835029960678588 0
0.1496209461974204 0.2885657843114464 0
0.1316888185333926 0.09082046748982156 0
0.1480946681282693 0.1111831718184199 0
0.2179397007226129 0.1036865680414252 0
0.2319940611893216 0.1137147938820369 0
0.184953028181772 0.1217604869339531 0
0.1714011987945663 0.2942810045047141 0
0.2428690975737224 0.1310071366622009 0
0.1653140392982472 0.1129420547751193 0
0.1554210572540309 0.1321892682838228 0
0.3846901206961533 0.3293761637392474 0
0.269817375601181 0.2016079459290855 0
0.1032382872322804 0.214510591922639 0
0.1776266390560103 0.1007543904685501 0
0.3847230866532245 0.07697926698054194 0
0.119830496225153 0.217461696244543 0
0.1317574034837065 0.201271844886167 0
0.1974488513984112 0.08331003230563891 0
$EndNodes
$Elements
9 1880 1 1880
1 1 1 12
1 1 8 
2 8 3 
3 3 9 
4 9 4 
5 4 10 
6 10 5 
7 5 11 
8 11 6 
9 6 12 
10 12 7 
11 7 13 
12 13 2 
1 2 1 56
13 2 28 
14 28 43 
15 43 15 
16 15 44 
17 44 16 
18 16 45 
19 45 17 
20 17 46 
21 46 18 
22 18 47 
23 47 19 
24 19 48 
25 48 20 
26 20 49 
27 49 21 
28 21 50 
29 50 22 
30 22 51 
31 51 23 
32 23 52 
33 52 24 
34 24 53 
35 53 25 
36 25 54 
37 54 26 
38 26 55 
39 55 27 
40 27 42 
41 42 14 
42 14 57 
43 57 29 
44 29 58 
45 58 30 
46 30 59 
47 59 31 
48 31 60 
49 60 32 
50 32 61 
51 61 33 
52 33 62 
53 62 34 
54 34 63 
55 63 35 
56 35 64 
57 64 36 
58 36 65 
59 65 37 
60 37 66 
61 66 38 
62 38 67 
63 67 39 
64 39 68 
65 68 40 
66 40 69 
67 69 41 
68 41 56 
1 3 1 12
69 56 76 
70 76 71 
71 71 77 
72 77 72 
73 72 78 
74 78 73 
75 73 79 
76 79 74 
77 74 80 
78 80 75 
79 75 81 
80 81 70 
1 4 1 56
81 70 96 
82 96 124 
83 124 83 
84 83 111 
85 111 84 
86 84 112 
87 112 85 
88 85 113 
89 113 86 
90 86 114 
91 114 87 
92 87 115 
93 115 88 
94 88 116 
95 116 89 
96 89 117 
97 117 90 
98 90 118 
99 118 91 
100 91 119 
101 119 92 
102 92 120 
103 120 93 
104 93 121 
105 121 94 
106 94 122 
107 122 95 
108 95 123 
109 123 82 
110 82 110 
111 110 97 
112 97 125 
113 125 98 
114 98 126 
115 126 99 
116 99 127 
117 127 100 
118 100 128 
119 128 101 
120 101 129 
121 129 102 
122 102 130 
123 130 103 
124 103 131 
125 131 104 
126 104 132 
127 132 105 
128 105 133 
129 133 106 
130 106 134 
131 134 107 
132 107 135 
133 135 108 
134 108 136 
135 136 109 
136 109 1 
1 5 1 4
137 137 140 
138 140 139 
139 139 141 
140 141 138 
1 6 1 4
141 138 144 
142 144 143 
143 143 145 
144 145 142 
1 7 1 4
145 142 148 
146 148 147 
147 147 149 
148 149 146 
1 8 1 4
149 146 151 
150 151 150 
151 150 152 
152 152 137 
2 1 2 1728
153 199 331 333 
154 331 332 333 
155 331 201 332 
156 333 332 113 
157 130 334 336 
158 334 335 336 
159 334 304 335 
160 336 335 255 
161 216 337 339 
162 337 338 339 
163 337 269 338 
164 339 338 170 
165 73 340 342 
166 340 341 342 
167 340 212 341 
168 342 341 198 
169 43 343 28 
170 343 344 28 
171 343 296 344 
172 28 344 2 
173 177 345 347 
174 345 346 347 
175 345 290 346 
176 347 346 191 
177 227 348 350 
178 348 349 350 
179 348 261 349 
180 350 349 159 
181 316 351 353 
182 351 352 353 
183 351 319 352 
184 353 352 200 
185 176 354 356 
186 354 355 356 
187 354 300 355 
188 356 355 143 
189 173 357 359 
190 357 358 359 
191 357 207 358 
192 359 358 206 
193 273 360 362 
194 360 361 362 
195 360 287 361 
196 362 361 185 
197 130 336 102 
198 336 363 102 
199 336 255 363 
200 102 363 129 
201 215 364 365 
202 364 337 365 
203 364 269 337 
204 365 337 216 
205 73 366 340 
206 366 367 340 
207 366 299 367 
208 340 367 212 
209 248 368 370 
210 368 369 370 
211 368 257 369 
212 370 369 239 
213 219 371 373 
214 371 372 373 
215 371 221 372 
216 373 372 160 
217 157 374 375 
218 374 334 375 
219 374 304 334 
220 375 334 130 
221 206 376 359 
222 376 377 359 
223 376 268 377 
224 359 377 173 
225 191 346 379 
226 346 378 379 
227 346 290 378 
228 379 378 241 
229 49 380 382 
230 380 381 382 
231 380 293 381 
232 382 381 285 
233 113 383 333 
234 383 384 333 
235 383 310 384 
236 333 384 199 
237 285 381 386 
238 381 385 386 
239 381 293 385 
240 386 385 240 
241 199 387 331 
242 387 388 331 
243 387 328 388 
244 331 388 201 
245 165 389 391 
246 389 390 391 
247 389 321 390 
248 391 390 290 
249 232 392 393 
250 392 348 393 
251 392 261 348 
252 393 348 227 
253 190 394 396 
254 394 395 396 
255 394 284 395 
256 396 395 277 
257 221 397 372 
258 397 398 372 
259 397 275 398 
260 372 398 160 
261 257 399 369 
262 399 400 369 
263 399 311 400 
264 369 400 239 
265 185 361 402 
266 361 401 402 
267 361 287 401 
268 402 401 264 
269 281 403 405 
270 403 404 405 
271 403 286 404 
272 405 404 208 
273 159 406 350 
274 406 407 350 
275 406 318 407 
276 350 407 227 
277 126 408 98 
278 408 409 98 
279 408 256 409 
280 98 409 125 
281 202 410 412 
282 410 411 412 
283 410 204 411 
284 412 411 172 
285 238 413 414 
286 413 386 414 
287 413 285 386 
288 414 386 240 
289 206 415 376 
290 415 416 376 
291 415 279 416 
292 376 416 268 
293 238 417 413 
294 417 418 413 
295 417 311 418 
296 413 418 285 
297 234 419 421 
298 419 420 421 
299 419 294 420 
300 421 420 171 
301 171 422 421 
302 422 423 421 
303 422 297 423 
304 421 423 234 
305 271 424 425 
306 424 353 425 
307 424 316 353 
308 425 353 200 
309 124 426 427 
310 426 351 427 
311 426 319 351 
312 427 351 316 
313 155 428 429 
314 428 403 429 
315 428 286 403 
316 429 403 281 
317 112 430 84 
318 430 431 84 
319 430 197 431 
320 84 431 111 
321 239 432 370 
322 432 433 370 
323 432 266 433 
324 370 433 248 
325 268 416 435 
326 416 434 435 
327 416 279 434 
328 435 434 154 
329 165 391 436 
330 391 345 436 
331 391 290 345 
332 436 345 177 
333 6 437 439 
334 437 438 439 
335 437 296 438 
336 439 438 253 
337 237 440 442 
338 440 441 442 
339 440 304 441 
340 442 441 280 
341 72 443 445 
342 443 444 445 
343 443 198 444 
344 445 444 185 
345 153 446 448 
346 446 447 448 
347 446 274 447 
348 448 447 231 
349 112 449 430 
350 449 450 430 
351 449 201 450 
352 430 450 197 
353 125 409 452 
354 409 451 452 
355 409 256 451 
356 452 451 168 
357 136 453 108 
358 453 454 108 
359 453 251 454 
360 108 454 135 
361 156 455 456 
362 455 364 456 
363 455 269 364 
364 456 364 215 
365 277 395 458 
366 395 457 458 
367 395 284 457 
368 458 457 67 
369 174 459 461 
370 459 460 461 
371 459 250 460 
372 461 460 249 
373 250 462 464 
374 462 463 464 
375 462 258 463 
376 464 463 247 
377 172 465 412 
378 465 466 412 
379 465 307 466 
380 412 466 202 
381 115 467 469 
382 467 468 469 
383 467 230 468 
384 469 468 164 
385 280 441 470 
386 441 374 470 
387 441 304 374 
388 470 374 157 
389 204 471 411 
390 471 472 411 
391 471 272 472 
392 411 472 172 
393 72 445 77 
394 445 473 77 
395 445 185 473 
396 77 473 71 
397 7 474 12 
398 474 437 12 
399 474 296 437 
400 12 437 6 
401 170 475 339 
402 475 476 339 
403 475 305 476 
404 339 476 216 
405 212 477 341 
406 477 478 341 
407 477 325 478 
408 341 478 198 
409 134 479 106 
410 479 480 106 
411 479 254 480 
412 106 480 133 
413 126 481 408 
414 481 482 408 
415 481 327 482 
416 408 482 256 
417 73 342 78 
418 342 443 78 
419 342 198 443 
420 78 443 72 
421 223 483 484 
422 483 397 484 
423 483 275 397 
424 484 397 221 
425 174 485 459 
426 485 486 459 
427 485 251 486 
428 459 486 250 
429 161 487 488 
430 487 392 488 
431 487 261 392 
432 488 392 232 
433 239 400 489 
434 400 417 489 
435 400 311 417 
436 489 417 238 
437 215 490 456 
438 490 491 456 
439 490 283 491 
440 456 491 156 
441 173 492 357 
442 492 493 357 
443 492 306 493 
444 357 493 207 
445 135 454 494 
446 454 485 494 
447 454 251 485 
448 494 485 174 
449 249 495 461 
450 495 496 461 
451 495 254 496 
452 461 496 174 
453 174 496 497 
454 496 479 497 
455 496 254 479 
456 497 479 134 
457 65 498 36 
458 498 499 36 
459 498 153 499 
460 36 499 64 
461 133 480 501 
462 480 500 501 
463 480 254 500 
464 501 500 169 
465 274 502 447 
466 502 503 447 
467 502 307 503 
468 447 503 231 
469 63 504 506 
470 504 505 506 
471 504 231 505 
472 506 505 172 
473 115 469 87 
474 469 507 87 
475 469 164 507 
476 87 507 114 
477 247 508 510 
478 508 509 510 
479 508 252 509 
480 510 509 244 
481 154 511 513 
482 511 512 513 
483 511 295 512 
484 513 512 230 
485 153 448 499 
486 448 514 499 
487 448 231 514 
488 499 514 64 
489 252 515 517 
490 515 516 517 
491 515 253 516 
492 517 516 183 
493 254 518 500 
494 518 519 500 
495 518 267 519 
496 500 519 169 
497 198 520 444 
498 520 362 444 
499 520 273 362 
500 444 362 185 
501 247 463 508 
502 463 521 508 
503 463 258 521 
504 508 521 252 
505 75 522 80 
506 522 523 80 
507 522 271 523 
508 80 523 74 
509 213 524 526 
510 524 525 526 
511 524 288 525 
512 526 525 166 
513 279 527 434 
514 527 511 434 
515 527 295 511 
516 434 511 154 
517 154 513 529 
518 513 528 529 
519 513 230 528 
520 529 528 116 
521 223 530 483 
522 530 531 483 
523 530 292 531 
524 483 531 275 
525 113 332 85 
526 332 449 85 
527 332 201 449 
528 85 449 112 
529 44 532 534 
530 532 533 534 
531 532 243 533 
532 534 533 183 
533 243 535 533 
534 535 517 533 
535 535 252 517 
536 533 517 183 
537 169 519 537 
538 519 536 537 
539 519 267 536 
540 537 536 266 
541 116 528 88 
542 528 467 88 
543 528 230 467 
544 88 467 115 
545 74 538 79 
546 538 366 79 
547 538 299 366 
548 79 366 73 
549 253 539 439 
550 539 540 439 
551 539 302 540 
552 439 540 6 
553 244 509 541 
554 509 535 541 
555 509 252 535 
556 541 535 243 
557 231 503 505 
558 503 465 505 
559 503 307 465 
560 505 465 172 
561 169 537 543 
562 537 542 543 
563 537 266 542 
564 543 542 263 
565 290 390 545 
566 390 544 545 
567 390 321 544 
568 545 544 184 
569 44 534 15 
570 534 546 15 
571 534 183 546 
572 15 546 43 
573 264 547 402 
574 547 548 402 
575 547 301 548 
576 402 548 185 
577 246 549 550 
578 549 510 550 
579 549 247 510 
580 550 510 244 
581 201 551 450 
582 551 552 450 
583 551 323 552 
584 450 552 197 
585 249 460 553 
586 460 464 553 
587 460 250 464 
588 553 464 247 
589 135 494 107 
590 494 497 107 
591 494 174 497 
592 107 497 134 
593 173 377 555 
594 377 554 555 
595 377 268 554 
596 555 554 118 
597 68 556 39 
598 556 458 39 
599 556 277 458 
600 39 458 67 
601 166 557 526 
602 557 558 526 
603 557 326 558 
604 526 558 213 
605 117 559 89 
606 559 529 89 
607 559 154 529 
608 89 529 116 
609 246 560 549 
610 560 553 549 
611 560 249 553 
612 549 553 247 
613 171 420 562 
614 420 561 562 
615 420 294 561 
616 562 561 229 
617 45 563 16 
618 563 532 16 
619 563 243 532 
620 16 532 44 
621 158 564 565 
622 564 563 565 
623 564 243 563 
624 565 563 45 
625 252 521 515 
626 521 566 515 
627 521 258 566 
628 515 566 253 
629 158 567 564 
630 567 541 564 
631 567 244 541 
632 564 541 243 
633 250 568 462 
634 568 569 462 
635 568 312 569 
636 462 569 258 
637 64 514 35 
638 514 504 35 
639 514 231 504 
640 35 504 63 
641 160 570 373 
642 570 571 373 
643 570 314 571 
644 373 571 219 
645 257 572 574 
646 572 573 574 
647 572 265 573 
648 574 573 167 
649 245 575 576 
650 575 550 576 
651 575 246 550 
652 576 550 244 
653 61 577 32 
654 577 578 32 
655 577 155 578 
656 32 578 60 
657 63 506 34 
658 506 579 34 
659 506 172 579 
660 34 579 62 
661 245 580 581 
662 580 572 581 
663 580 265 572 
664 581 572 257 
665 158 582 583 
666 582 580 583 
667 582 265 580 
668 583 580 245 
669 156 584 586 
670 584 585 586 
671 584 259 585 
672 586 585 120 
673 119 587 589 
674 587 588 589 
675 587 259 588 
676 589 588 173 
677 119 589 91 
678 589 555 91 
679 589 173 555 
680 91 555 118 
681 121 590 93 
682 590 586 93 
683 590 156 586 
684 93 586 120 
685 120 585 92 
686 585 587 92 
687 585 259 587 
688 92 587 119 
689 58 591 29 
690 591 592 29 
691 591 166 592 
692 29 592 57 
693 42 593 595 
694 593 594 595 
695 593 260 594 
696 595 594 160 
697 166 596 592 
698 596 597 592 
699 596 260 597 
700 592 597 57 
701 57 597 14 
702 597 593 14 
703 597 260 593 
704 14 593 42 
705 168 598 600 
706 598 599 600 
707 598 262 599 
708 600 599 110 
709 131 601 603 
710 601 602 603 
711 601 263 602 
712 603 602 157 
713 132 604 104 
714 604 601 104 
715 604 263 601 
716 104 601 131 
717 110 599 82 
718 599 605 82 
719 599 262 605 
720 82 605 123 
721 51 606 607 
722 606 487 607 
723 606 261 487 
724 607 487 161 
725 48 608 19 
726 608 609 19 
727 608 167 609 
728 19 609 47 
729 51 607 22 
730 607 610 22 
731 607 161 610 
732 22 610 50 
733 52 611 23 
734 611 606 23 
735 611 261 606 
736 23 606 51 
737 125 452 97 
738 452 600 97 
739 452 168 600 
740 97 600 110 
741 123 612 95 
742 612 613 95 
743 612 170 613 
744 95 613 122 
745 42 595 27 
746 595 614 27 
747 595 160 614 
748 27 614 55 
749 133 501 105 
750 501 615 105 
751 501 169 615 
752 105 615 132 
753 123 605 612 
754 605 616 612 
755 605 262 616 
756 612 616 170 
757 128 617 100 
758 617 618 100 
759 617 171 618 
760 100 618 127 
761 131 603 103 
762 603 375 103 
763 603 157 375 
764 103 375 130 
765 46 619 17 
766 619 565 17 
767 619 158 565 
768 17 565 45 
769 53 620 24 
770 620 621 24 
771 620 159 621 
772 24 621 52 
773 159 349 621 
774 349 611 621 
775 349 261 611 
776 621 611 52 
777 169 543 615 
778 543 604 615 
779 543 263 604 
780 615 604 132 
781 238 414 623 
782 414 622 623 
783 414 240 622 
784 623 622 236 
785 235 624 626 
786 624 625 626 
787 624 236 625 
788 626 625 233 
789 237 627 628 
790 627 489 628 
791 627 239 489 
792 628 489 238 
793 237 628 629 
794 628 623 629 
795 628 238 623 
796 629 623 236 
797 235 630 624 
798 630 629 624 
799 630 237 629 
800 624 629 236 
801 234 631 633 
802 631 632 633 
803 631 255 632 
804 633 632 235 
805 234 633 634 
806 633 626 634 
807 633 235 626 
808 634 626 233 
809 228 635 636 
810 635 634 636 
811 635 234 634 
812 636 634 233 
813 228 636 638 
814 636 637 638 
815 636 233 637 
816 638 637 232 
817 228 638 639 
818 638 393 639 
819 638 232 393 
820 639 393 227 
821 225 640 642 
822 640 641 642 
823 640 256 641 
824 642 641 229 
825 225 642 644 
826 642 643 644 
827 642 229 643 
828 644 643 226 
829 226 645 646 
830 645 639 646 
831 645 228 639 
832 646 639 227 
833 226 646 648 
834 646 647 648 
835 646 227 647 
836 648 647 224 
837 222 649 651 
838 649 650 651 
839 649 225 650 
840 651 650 224 
841 225 644 650 
842 644 648 650 
843 644 226 648 
844 650 648 224 
845 222 651 653 
846 651 652 653 
847 651 224 652 
848 653 652 223 
849 222 653 654 
850 653 484 654 
851 653 223 484 
852 654 484 221 
853 220 655 656 
854 655 654 656 
855 655 222 654 
856 656 654 221 
857 220 656 657 
858 656 371 657 
859 656 221 371 
860 657 371 219 
861 218 658 659 
862 658 657 659 
863 658 220 657 
864 659 657 219 
865 218 659 661 
866 659 660 661 
867 659 219 660 
868 661 660 217 
869 69 662 40 
870 662 663 40 
871 662 264 663 
872 40 663 68 
873 216 664 665 
874 664 661 665 
875 664 218 661 
876 665 661 217 
877 216 665 667 
878 665 666 667 
879 665 217 666 
880 667 666 214 
881 245 668 575 
882 668 669 575 
883 668 248 669 
884 575 669 246 
885 211 670 672 
886 670 671 672 
887 670 215 671 
888 672 671 214 
889 46 673 619 
890 673 582 619 
891 673 265 582 
892 619 582 158 
893 167 573 609 
894 573 674 609 
895 573 265 674 
896 609 674 47 
897 215 365 671 
898 365 667 671 
899 365 216 667 
900 671 667 214 
901 213 675 677 
902 675 676 677 
903 675 242 676 
904 677 676 210 
905 211 672 679 
906 672 678 679 
907 672 214 678 
908 679 678 213 
909 211 679 680 
910 679 677 680 
911 679 213 677 
912 680 677 210 
913 209 681 682 
914 681 680 682 
915 681 211 680 
916 682 680 210 
917 232 683 488 
918 683 684 488 
919 683 278 684 
920 488 684 161 
921 209 682 686 
922 682 685 686 
923 682 210 685 
924 686 685 208 
925 158 583 567 
926 583 576 567 
927 583 245 576 
928 567 576 244 
929 47 674 18 
930 674 673 18 
931 674 265 673 
932 18 673 46 
933 207 687 688 
934 687 686 688 
935 687 209 686 
936 688 686 208 
937 156 491 584 
938 491 689 584 
939 491 283 689 
940 584 689 259 
941 266 690 542 
942 690 691 542 
943 690 280 691 
944 542 691 263 
945 245 581 668 
946 581 368 668 
947 581 257 368 
948 668 368 248 
949 229 692 562 
950 692 693 562 
951 692 327 693 
952 562 693 171 
953 207 688 695 
954 688 694 695 
955 688 208 694 
956 695 694 205 
957 249 696 495 
958 696 518 495 
959 696 267 518 
960 495 518 254 
961 203 697 699 
962 697 698 699 
963 697 206 698 
964 699 698 205 
965 206 358 698 
966 358 695 698 
967 358 207 695 
968 698 695 205 
969 248 700 669 
970 700 701 669 
971 700 267 701 
972 669 701 246 
973 121 702 590 
974 702 455 590 
975 702 269 455 
976 590 455 156 
977 170 338 613 
978 338 703 613 
979 338 269 703 
980 613 703 122 
981 287 704 401 
982 704 705 401 
983 704 329 705 
984 401 705 264 
985 266 536 433 
986 536 700 433 
987 536 267 700 
988 433 700 248 
989 256 706 451 
990 706 707 451 
991 706 270 707 
992 451 707 168 
993 118 554 90 
994 554 708 90 
995 554 268 708 
996 90 708 117 
997 66 709 37 
998 709 710 37 
999 709 289 710 
1000 37 710 65 
1001 117 708 559 
1002 708 435 559 
1003 708 268 435 
1004 559 435 154 
1005 61 711 577 
1006 711 712 577 
1007 711 272 712 
1008 577 712 155 
1009 172 472 579 
1010 472 713 579 
1011 472 272 713 
1012 579 713 62 
1013 220 714 655 
1014 714 715 655 
1015 714 270 715 
1016 655 715 222 
1017 225 716 640 
1018 716 706 640 
1019 716 270 706 
1020 640 706 256 
1021 246 701 560 
1022 701 696 560 
1023 701 267 696 
1024 560 696 249 
1025 203 699 718 
1026 699 717 718 
1027 699 205 717 
1028 718 717 204 
1029 183 719 546 
1030 719 343 546 
1031 719 296 343 
1032 546 343 43 
1033 256 482 641 
1034 482 692 641 
1035 482 327 692 
1036 641 692 229 
1037 122 703 94 
1038 703 702 94 
1039 703 269 702 
1040 94 702 121 
1041 193 720 722 
1042 720 721 722 
1043 720 241 721 
1044 722 721 187 
1045 160 398 614 
1046 398 723 614 
1047 398 275 723 
1048 614 723 55 
1049 203 718 724 
1050 718 410 724 
1051 718 204 410 
1052 724 410 202 
1053 166 525 596 
1054 525 725 596 
1055 525 288 725 
1056 596 725 260 
1057 5 726 10 
1058 726 727 10 
1059 726 163 727 
1060 10 727 4 
1061 230 728 468 
1062 728 729 468 
1063 728 303 729 
1064 468 729 164 
1065 66 730 709 
1066 730 731 709 
1067 730 291 731 
1068 709 731 289 
1069 222 715 649 
1070 715 716 649 
1071 715 270 716 
1072 649 716 225 
1073 197 732 431 
1074 732 733 431 
1075 732 319 733 
1076 431 733 111 
1077 239 734 432 
1078 734 690 432 
1079 734 280 690 
1080 432 690 266 
1081 233 735 637 
1082 735 683 637 
1083 735 278 683 
1084 637 683 232 
1085 240 736 622 
1086 736 737 622 
1087 736 278 737 
1088 622 737 236 
1089 283 738 689 
1090 738 739 689 
1091 738 306 739 
1092 689 739 259 
1093 62 713 33 
1094 713 711 33 
1095 713 272 711 
1096 33 711 61 
1097 190 740 741 
1098 740 354 741 
1099 740 300 354 
1100 741 354 176 
1101 218 742 658 
1102 742 743 658 
1103 742 282 743 
1104 658 743 220 
1105 241 378 721 
1106 378 744 721 
1107 378 290 744 
1108 721 744 187 
1109 196 745 746 
1110 745 724 746 
1111 745 203 724 
1112 746 724 202 
1113 136 747 453 
1114 747 748 453 
1115 747 317 748 
1116 453 748 251 
1117 258 569 750 
1118 569 749 750 
1119 569 312 749 
1120 750 749 163 
1121 55 723 26 
1122 723 751 26 
1123 723 275 751 
1124 26 751 54 
1125 4 752 9 
1126 752 753 9 
1127 752 276 753 
1128 9 753 3 
1129 203 754 697 
1130 754 415 697 
1131 754 279 415 
1132 697 415 206 
1133 196 746 756 
1134 746 755 756 
1135 746 202 755 
1136 756 755 195 
1137 210 757 685 
1138 757 405 685 
1139 757 281 405 
1140 685 405 208 
1141 211 758 670 
1142 758 490 670 
1143 758 283 490 
1144 670 490 215 
1145 273 759 761 
1146 759 760 761 
1147 759 325 760 
1148 761 760 175 
1149 288 762 725 
1150 762 763 725 
1151 762 314 763 
1152 725 763 260 
1153 49 382 20 
1154 382 764 20 
1155 382 285 764 
1156 20 764 48 
1157 56 765 41 
1158 765 766 41 
1159 765 301 766 
1160 41 766 69 
1161 242 767 769 
1162 767 768 769 
1163 767 326 768 
1164 769 768 59 
1165 194 770 771 
1166 770 756 771 
1167 770 196 756 
1168 771 756 195 
1169 214 772 678 
1170 772 524 678 
1171 772 288 524 
1172 678 524 213 
1173 255 773 363 
1174 773 774 363 
1175 773 297 774 
1176 363 774 129 
1177 194 771 776 
1178 771 775 776 
1179 771 195 775 
1180 776 775 193 
1181 53 777 620 
1182 777 778 620 
1183 777 292 778 
1184 620 778 159 
1185 208 404 694 
1186 404 779 694 
1187 404 286 779 
1188 694 779 205 
1189 271 780 523 
1190 780 538 523 
1191 780 299 538 
1192 523 538 74 
1193 163 781 727 
1194 781 752 727 
1195 781 276 752 
1196 727 752 4 
1197 50 782 21 
1198 782 380 21 
1199 782 293 380 
1200 21 380 49 
1201 193 783 720 
1202 783 784 720 
1203 783 274 784 
1204 720 784 241 
1205 228 785 635 
1206 785 419 635 
1207 785 294 419 
1208 635 419 234 
1209 229 561 643 
1210 561 786 643 
1211 561 294 786 
1212 643 786 226 
1213 129 774 101 
1214 774 787 101 
1215 774 297 787 
1216 101 787 128 
1217 138 788 144 
1218 788 789 144 
1219 788 165 789 
1220 144 789 143 
1221 114 790 86 
1222 790 383 86 
1223 790 310 383 
1224 86 383 113 
1225 235 791 630 
1226 791 440 630 
1227 791 304 440 
1228 630 440 237 
1229 155 792 578 
1230 792 793 578 
1231 792 315 793 
1232 578 793 60 
1233 236 737 625 
1234 737 735 625 
1235 737 278 735 
1236 625 735 233 
1237 59 768 30 
1238 768 794 30 
1239 768 326 794 
1240 30 794 58 
1241 171 693 618 
1242 693 795 618 
1243 693 327 795 
1244 618 795 127 
1245 227 407 647 
1246 407 796 647 
1247 407 318 796 
1248 647 796 224 
1249 292 797 778 
1250 797 406 778 
1251 797 318 406 
1252 778 406 159 
1253 192 798 799 
1254 798 776 799 
1255 798 194 776 
1256 799 776 193 
1257 264 800 663 
1258 800 556 663 
1259 800 277 556 
1260 663 556 68 
1261 272 801 712 
1262 801 428 712 
1263 801 286 428 
1264 712 428 155 
1265 213 558 675 
1266 558 767 675 
1267 558 326 767 
1268 675 767 242 
1269 195 802 775 
1270 802 783 775 
1271 802 274 783 
1272 775 783 193 
1273 147 803 149 
1274 803 804 149 
1275 803 175 804 
1276 149 804 146 
1277 1 805 109 
1278 805 747 109 
1279 805 317 747 
1280 109 747 136 
1281 264 705 800 
1282 705 806 800 
1283 705 329 806 
1284 800 806 277 
1285 146 807 151 
1286 807 808 151 
1287 807 178 808 
1288 151 808 150 
1289 71 809 76 
1290 809 765 76 
1291 809 301 765 
1292 76 765 56 
1293 6 540 11 
1294 540 810 11 
1295 540 302 810 
1296 11 810 5 
1297 218 811 742 
1298 811 812 742 
1299 811 305 812 
1300 742 812 282 
1301 275 531 751 
1302 531 813 751 
1303 531 292 813 
1304 751 813 54 
1305 139 814 141 
1306 814 815 141 
1307 814 162 815 
1308 141 815 138 
1309 192 799 816 
1310 799 722 816 
1311 799 193 722 
1312 816 722 187 
1313 190 817 740 
1314 817 818 740 
1315 817 329 818 
1316 740 818 300 
1317 234 423 631 
1318 423 773 631 
1319 423 297 773 
1320 631 773 255 
1321 274 819 784 
1322 819 820 784 
1323 819 330 820 
1324 784 820 241 
1325 153 821 446 
1326 821 819 446 
1327 821 330 819 
1328 446 819 274 
1329 65 710 498 
1330 710 822 498 
1331 710 289 822 
1332 498 822 153 
1333 259 739 588 
1334 739 492 588 
1335 739 306 492 
1336 588 492 173 
1337 277 806 396 
1338 806 817 396 
1339 806 329 817 
1340 396 817 190 
1341 181 823 825 
1342 823 824 825 
1343 823 184 824 
1344 825 824 162 
1345 168 826 598 
1346 826 827 598 
1347 826 282 827 
1348 598 827 262 
1349 204 828 471 
1350 828 801 471 
1351 828 286 801 
1352 471 801 272 
1353 216 476 664 
1354 476 811 664 
1355 476 305 811 
1356 664 811 218 
1357 295 829 512 
1358 829 728 512 
1359 829 303 728 
1360 512 728 230 
1361 124 427 96 
1362 427 830 96 
1363 427 316 830 
1364 96 830 70 
1365 189 831 832 
1366 831 741 832 
1367 831 190 741 
1368 832 741 176 
1369 240 385 736 
1370 385 833 736 
1371 385 293 833 
1372 736 833 278 
1373 263 691 602 
1374 691 470 602 
1375 691 280 470 
1376 602 470 157 
1377 142 834 148 
1378 834 835 148 
1379 834 179 835 
1380 148 835 147 
1381 111 733 83 
1382 733 426 83 
1383 733 319 426 
1384 83 426 124 
1385 163 836 750 
1386 836 837 750 
1387 836 302 837 
1388 750 837 258 
1389 186 838 839 
1390 838 816 839 
1391 838 192 816 
1392 839 816 187 
1393 67 457 38 
1394 457 840 38 
1395 457 284 840 
1396 38 840 66 
1397 175 841 761 
1398 841 842 761 
1399 841 313 842 
1400 761 842 273 
1401 3 843 8 
1402 843 805 8 
1403 843 317 805 
1404 8 805 1 
1405 260 763 594 
1406 763 570 594 
1407 763 314 570 
1408 594 570 160 
1409 258 837 566 
1410 837 539 566 
1411 837 302 539 
1412 566 539 253 
1413 237 442 627 
1414 442 734 627 
1415 442 280 734 
1416 627 734 239 
1417 186 839 845 
1418 839 844 845 
1419 839 187 844 
1420 845 844 184 
1421 242 846 676 
1422 846 757 676 
1423 846 281 757 
1424 676 757 210 
1425 270 847 707 
1426 847 826 707 
1427 847 282 826 
1428 707 826 168 
1429 220 743 714 
1430 743 847 714 
1431 743 282 847 
1432 714 847 270 
1433 196 848 745 
1434 848 754 745 
1435 848 279 754 
1436 745 754 203 
1437 209 849 681 
1438 849 758 681 
1439 849 283 758 
1440 681 758 211 
1441 195 850 802 
1442 850 502 802 
1443 850 307 502 
1444 802 502 274 
1445 281 851 429 
1446 851 792 429 
1447 851 315 792 
1448 429 792 155 
1449 188 852 853 
1450 852 425 853 
1451 852 271 425 
1452 853 425 200 
1453 185 548 473 
1454 548 809 473 
1455 548 301 809 
1456 473 809 71 
1457 178 854 856 
1458 854 855 856 
1459 854 212 855 
1460 856 855 188 
1461 48 764 608 
1462 764 857 608 
1463 764 285 857 
1464 608 857 167 
1465 69 766 662 
1466 766 547 662 
1467 766 301 547 
1468 662 547 264 
1469 177 347 859 
1470 347 858 859 
1471 347 191 858 
1472 859 858 189 
1473 164 860 507 
1474 860 790 507 
1475 860 310 790 
1476 507 790 114 
1477 217 861 666 
1478 861 772 666 
1479 861 288 772 
1480 666 772 214 
1481 253 438 516 
1482 438 719 516 
1483 438 296 719 
1484 516 719 183 
1485 181 862 823 
1486 862 845 823 
1487 862 186 845 
1488 823 845 184 
1489 205 779 717 
1490 779 828 717 
1491 779 286 828 
1492 717 828 204 
1493 54 813 25 
1494 813 777 25 
1495 813 292 777 
1496 25 777 53 
1497 147 863 803 
1498 863 841 803 
1499 863 313 841 
1500 803 841 175 
1501 181 864 862 
1502 864 865 862 
1503 864 199 865 
1504 862 865 186 
1505 223 866 530 
1506 866 797 530 
1507 866 318 797 
1508 530 797 292 
1509 165 436 868 
1510 436 867 868 
1511 436 177 867 
1512 868 867 176 
1513 285 418 857 
1514 418 869 857 
1515 418 311 869 
1516 857 869 167 
1517 251 870 486 
1518 870 568 486 
1519 870 312 568 
1520 486 568 250 
1521 209 871 849 
1522 871 738 849 
1523 871 306 738 
1524 849 738 283 
1525 165 868 789 
1526 868 356 789 
1527 868 176 356 
1528 789 356 143 
1529 278 833 684 
1530 833 872 684 
1531 833 293 872 
1532 684 872 161 
1533 161 872 610 
1534 872 782 610 
1535 872 293 782 
1536 610 782 50 
1537 196 873 848 
1538 873 527 848 
1539 873 295 527 
1540 848 527 279 
1541 226 786 645 
1542 786 785 645 
1543 786 294 785 
1544 645 785 228 
1545 180 874 875 
1546 874 825 875 
1547 874 181 825 
1548 875 825 162 
1549 177 859 867 
1550 859 832 867 
1551 859 189 832 
1552 867 832 176 
1553 217 876 861 
1554 876 762 861 
1555 876 314 762 
1556 861 762 288 
1557 189 877 831 
1558 877 394 831 
1559 877 284 394 
1560 831 394 190 
1561 128 787 617 
1562 787 422 617 
1563 787 297 422 
1564 617 422 171 
1565 178 878 808 
1566 878 879 808 
1567 878 182 879 
1568 808 879 150 
1569 59 880 769 
1570 880 881 769 
1571 880 315 881 
1572 769 881 242 
1573 251 748 883 
1574 748 882 883 
1575 748 317 882 
1576 883 882 276 
1577 70 830 81 
1578 830 884 81 
1579 830 316 884 
1580 81 884 75 
1581 179 885 835 
1582 885 863 835 
1583 885 313 863 
1584 835 863 147 
1585 188 853 887 
1586 853 886 887 
1587 853 200 886 
1588 887 886 182 
1589 139 888 814 
1590 888 875 814 
1591 888 180 875 
1592 814 875 162 
1593 282 812 827 
1594 812 889 827 
1595 812 305 889 
1596 827 889 262 
1597 298 890 892 
1598 890 891 892 
1599 890 303 891 
1600 892 891 192 
1601 186 893 838 
1602 893 892 838 
1603 893 298 892 
1604 838 892 192 
1605 198 478 520 
1606 478 759 520 
1607 478 325 759 
1608 520 759 273 
1609 187 744 844 
1610 744 545 844 
1611 744 290 545 
1612 844 545 184 
1613 255 335 632 
1614 335 791 632 
1615 335 304 791 
1616 632 791 235 
1617 194 894 770 
1618 894 873 770 
1619 894 295 873 
1620 770 873 196 
1621 262 889 616 
1622 889 475 616 
1623 889 305 475 
1624 616 475 170 
1625 241 820 379 
1626 820 895 379 
1627 820 330 895 
1628 379 895 191 
1629 167 869 574 
1630 869 399 574 
1631 869 311 399 
1632 574 399 257 
1633 178 856 878 
1634 856 887 878 
1635 856 188 887 
1636 878 887 182 
1637 188 896 852 
1638 896 780 852 
1639 896 299 780 
1640 852 780 271 
1641 207 493 687 
1642 493 871 687 
1643 493 306 871 
1644 687 871 209 
1645 184 544 824 
1646 544 897 824 
1647 544 321 897 
1648 824 897 162 
1649 178 898 854 
1650 898 899 854 
1651 898 324 899 
1652 854 899 212 
1653 219 571 660 
1654 571 876 660 
1655 571 314 876 
1656 660 876 217 
1657 5 810 726 
1658 810 836 726 
1659 810 302 836 
1660 726 836 163 
1661 60 793 31 
1662 793 880 31 
1663 793 315 880 
1664 31 880 59 
1665 194 900 894 
1666 900 829 894 
1667 900 303 829 
1668 894 829 295 
1669 224 796 652 
1670 796 866 652 
1671 796 318 866 
1672 652 866 223 
1673 308 901 902 
1674 901 732 902 
1675 901 319 732 
1676 902 732 197 
1677 58 794 591 
1678 794 557 591 
1679 794 326 557 
1680 591 557 166 
1681 202 466 755 
1682 466 850 755 
1683 466 307 850 
1684 755 850 195 
1685 127 795 99 
1686 795 481 99 
1687 795 327 481 
1688 99 481 126 
1689 289 731 904 
1690 731 903 904 
1691 731 291 903 
1692 904 903 191 
1693 284 905 840 
1694 905 730 840 
1695 905 291 730 
1696 840 730 66 
1697 192 891 798 
1698 891 900 798 
1699 891 303 900 
1700 798 900 194 
1701 309 906 908 
1702 906 907 908 
1703 906 322 907 
1704 908 907 137 
1705 181 909 864 
1706 909 387 864 
1707 909 328 387 
1708 864 387 199 
1709 191 903 858 
1710 903 910 858 
1711 903 291 910 
1712 858 910 189 
1713 164 729 911 
1714 729 890 911 
1715 729 303 890 
1716 911 890 298 
1717 142 912 834 
1718 912 913 834 
1719 912 300 913 
1720 834 913 179 
1721 276 914 883 
1722 914 870 883 
1723 914 312 870 
1724 883 870 251 
1725 199 915 865 
1726 915 893 865 
1727 915 298 893 
1728 865 893 186 
1729 323 916 918 
1730 916 917 918 
1731 916 328 917 
1732 918 917 180 
1733 163 749 781 
1734 749 914 781 
1735 749 312 914 
1736 781 914 276 
1737 75 884 522 
1738 884 424 522 
1739 884 316 424 
1740 522 424 271 
1741 276 882 753 
1742 882 843 753 
1743 882 317 843 
1744 753 843 3 
1745 150 919 152 
1746 919 920 152 
1747 919 320 920 
1748 152 920 137 
1749 212 367 855 
1750 367 896 855 
1751 367 299 896 
1752 855 896 188 
1753 137 907 140 
1754 907 921 140 
1755 907 322 921 
1756 140 921 139 
1757 287 922 923 
1758 922 885 923 
1759 922 313 885 
1760 923 885 179 
1761 200 924 886 
1762 924 925 886 
1763 924 308 925 
1764 886 925 182 
1765 189 910 877 
1766 910 905 877 
1767 910 291 905 
1768 877 905 284 
1769 309 926 906 
1770 926 927 906 
1771 926 323 927 
1772 906 927 322 
1773 137 920 908 
1774 920 928 908 
1775 920 320 928 
1776 908 928 309 
1777 179 929 923 
1778 929 704 923 
1779 929 329 704 
1780 923 704 287 
1781 322 927 930 
1782 927 918 930 
1783 927 323 918 
1784 930 918 180 
1785 308 931 925 
1786 931 932 925 
1787 931 320 932 
1788 925 932 182 
1789 242 881 846 
1790 881 851 846 
1791 881 315 851 
1792 846 851 281 
1793 191 895 904 
1794 895 933 904 
1795 895 330 933 
1796 904 933 289 
1797 138 934 788 
1798 934 389 788 
1799 934 321 389 
1800 788 389 165 
1801 273 842 360 
1802 842 922 360 
1803 842 313 922 
1804 360 922 287 
1805 289 933 822 
1806 933 821 822 
1807 933 330 821 
1808 822 821 153 
1809 324 935 899 
1810 935 477 899 
1811 935 325 477 
1812 899 477 212 
1813 309 928 936 
1814 928 931 936 
1815 928 320 931 
1816 936 931 308 
1817 298 937 911 
1818 937 860 911 
1819 937 310 860 
1820 911 860 164 
1821 162 897 815 
1822 897 934 815 
1823 897 321 934 
1824 815 934 138 
1825 175 938 804 
1826 938 939 804 
1827 938 324 939 
1828 804 939 146 
1829 199 384 915 
1830 384 937 915 
1831 384 310 937 
1832 915 937 298 
1833 146 939 807 
1834 939 898 807 
1835 939 324 898 
1836 807 898 178 
1837 180 917 874 
1838 917 909 874 
1839 917 328 909 
1840 874 909 181 
1841 182 932 879 
1842 932 919 879 
1843 932 320 919 
1844 879 919 150 
1845 139 921 888 
1846 921 930 888 
1847 921 322 930 
1848 888 930 180 
1849 197 552 940 
1850 552 926 940 
1851 552 323 926 
1852 940 926 309 
1853 300 818 913 
1854 818 929 913 
1855 818 329 929 
1856 913 929 179 
1857 200 352 924 
1858 352 901 924 
1859 352 319 901 
1860 924 901 308 
1861 197 940 902 
1862 940 936 902 
1863 940 309 936 
1864 902 936 308 
1865 201 388 551 
1866 388 916 551 
1867 388 328 916 
1868 551 916 323 
1869 175 760 938 
1870 760 935 938 
1871 760 325 935 
1872 938 935 324 
1873 2 344 13 
1874 344 474 13 
1875 344 296 474 
1876 13 474 7 
1877 143 355 145 
1878 355 912 145 
1879 355 300 912 
1880 145 912 142 
$EndElements
